<svg viewBox="-44 0 512 512" xmlns="http://www.w3.org/2000/svg"><path d="m379.078125 0h-334.769531c-24.433594 0-44.308594 19.875-44.308594 44.308594v44.308594c0 22.765624 17.261719 41.566406 39.382812 44.027343v335.046875c0 24.433594 19.878907 44.308594 44.308594 44.308594h256c24.433594 0 44.308594-19.875 44.308594-44.308594v-335.046875c22.121094-2.457031 39.382812-21.261719 39.382812-44.027343v-44.308594c0-24.433594-19.875-44.308594-44.304687-44.308594zm-24.617187 214.152344h-285.539063v-81.230469h285.539063zm0 157.539062h-285.539063v-128h285.539063zm-14.769532 110.769532h-256c-8.144531 0-14.769531-6.625-14.769531-14.769532v-66.460937h285.539063v66.460937c0 8.144532-6.625 14.769532-14.769532 14.769532zm54.15625-393.84375c0 8.140624-6.628906 14.765624-14.769531 14.765624h-334.769531c-8.144532 0-14.769532-6.625-14.769532-14.765624v-44.308594c0-8.144532 6.625-14.769532 14.769532-14.769532h14.769531v29.539063c0 8.15625 6.613281 14.769531 14.769531 14.769531s14.769532-6.613281 14.769532-14.769531v-29.539063h39.382812v29.539063c0 8.15625 6.613281 14.769531 14.769531 14.769531s14.769531-6.613281 14.769531-14.769531v-29.539063h39.382813v29.539063c0 8.15625 6.613281 14.769531 14.769531 14.769531s14.769532-6.613281 14.769532-14.769531v-29.539063h39.386718v29.539063c0 8.15625 6.609375 14.769531 14.769532 14.769531 8.15625 0 14.765624-6.613281 14.765624-14.769531v-29.539063h39.386719v29.539063c0 8.15625 6.613281 14.769531 14.769531 14.769531s14.769532-6.613281 14.769532-14.769531v-29.539063h14.769531c8.140625 0 14.769531 6.625 14.769531 14.769532zm0 0"/><path d="m182.152344 320h14.769531v14.769531c0 8.15625 6.613281 14.769531 14.769531 14.769531s14.769532-6.613281 14.769532-14.769531v-14.769531h14.769531c8.15625 0 14.769531-6.613281 14.769531-14.769531s-6.613281-14.769531-14.769531-14.769531h-14.769531v-14.769532c0-8.15625-6.613282-14.769531-14.769532-14.769531s-14.769531 6.613281-14.769531 14.769531v14.769532h-14.769531c-8.15625 0-14.769532 6.613281-14.769532 14.769531s6.613282 14.769531 14.769532 14.769531zm0 0"/></svg>