<svg viewBox="-103 0 512 512" xmlns="http://www.w3.org/2000/svg"><path d="m260.921875 0h-216.613281c-24.433594 0-44.308594 19.875-44.308594 44.308594v423.382812c0 24.433594 19.875 44.308594 44.308594 44.308594h216.613281c24.433594 0 44.308594-19.875 44.308594-44.308594v-423.382812c0-24.433594-19.875-44.308594-44.308594-44.308594zm14.769531 467.691406c0 8.144532-6.625 14.769532-14.769531 14.769532h-216.613281c-8.144532 0-14.769532-6.625-14.769532-14.769532v-423.382812c0-8.144532 6.625-14.769532 14.769532-14.769532h216.613281c8.144531 0 14.769531 6.625 14.769531 14.769532zm0 0"/><path d="m233.621094 81.230469c-15.222656-26.363281-64.144532-14.128907-103.160156 8.398437-39.015626 22.527344-74.074219 58.777344-58.851563 85.140625 6.09375 10.554688 17.582031 14.921875 31.679687 14.921875 21.117188 0 48.082032-9.808594 71.480469-23.320312 39.015625-22.527344 74.074219-58.777344 58.851563-85.140625zm-73.621094 59.5625c-32.070312 18.515625-55.496094 20.914062-62.265625 18.890625 1.632813-6.871094 15.425781-25.957032 47.496094-44.472656 32.070312-18.515626 55.496093-20.917969 62.265625-18.894532-1.632813 6.871094-15.425782 25.957032-47.496094 44.476563zm0 0"/><path d="m233.621094 209.230469c-15.222656-26.363281-64.144532-14.128907-103.160156 8.398437-39.015626 22.527344-74.074219 58.777344-58.851563 85.140625 6.09375 10.554688 17.582031 14.921875 31.679687 14.921875 21.117188 0 48.082032-9.808594 71.480469-23.320312 39.015625-22.527344 74.074219-58.777344 58.851563-85.140625zm-73.621094 59.5625c-32.070312 18.515625-55.496094 20.914062-62.265625 18.890625 1.632813-6.871094 15.425781-25.957032 47.496094-44.472656 32.070312-18.515626 55.496093-20.917969 62.265625-18.894532-1.632813 6.871094-15.425782 25.957032-47.496094 44.476563zm0 0"/><path d="m233.621094 337.230469c-15.222656-26.363281-64.144532-14.128907-103.160156 8.398437-39.015626 22.527344-74.074219 58.777344-58.851563 85.140625 6.09375 10.554688 17.582031 14.921875 31.679687 14.921875 21.117188 0 48.082032-9.808594 71.480469-23.320312 39.015625-22.527344 74.074219-58.777344 58.851563-85.140625zm-73.621094 59.5625c-32.070312 18.515625-55.496094 20.914062-62.265625 18.890625 1.632813-6.871094 15.425781-25.957032 47.496094-44.472656 32.070312-18.515626 55.496093-20.917969 62.265625-18.894532-1.632813 6.871094-15.425782 25.957032-47.496094 44.476563zm0 0"/></svg>