<svg viewBox="-103 0 512 512" xmlns="http://www.w3.org/2000/svg"><path d="m260.921875 0h-216.613281c-24.433594 0-44.308594 19.875-44.308594 44.308594v423.382812c0 24.433594 19.875 44.308594 44.308594 44.308594h216.613281c24.433594 0 44.308594-19.875 44.308594-44.308594v-423.382812c0-24.433594-19.875-44.308594-44.308594-44.308594zm14.769531 467.691406c0 8.144532-6.625 14.769532-14.769531 14.769532h-216.613281c-8.144532 0-14.769532-6.625-14.769532-14.769532v-423.382812c0-8.144532 6.625-14.769532 14.769532-14.769532h216.613281c8.144531 0 14.769531 6.625 14.769531 14.769532zm0 0"/><path d="m98.460938 64c-24.429688 0-44.308594 19.875-44.308594 44.308594 0 24.429687 19.878906 44.308594 44.308594 44.308594 24.433593 0 44.308593-19.878907 44.308593-44.308594 0-24.433594-19.875-44.308594-44.308593-44.308594zm0 59.078125c-8.144532 0-14.769532-6.625-14.769532-14.769531 0-8.144532 6.625-14.769532 14.769532-14.769532 8.144531 0 14.769531 6.625 14.769531 14.769532 0 8.144531-6.625 14.769531-14.769531 14.769531zm0 0"/><path d="m206.769531 64c-24.429687 0-44.308593 19.875-44.308593 44.308594 0 24.429687 19.878906 44.308594 44.308593 44.308594 24.429688 0 44.308594-19.878907 44.308594-44.308594 0-24.433594-19.878906-44.308594-44.308594-44.308594zm0 59.078125c-8.144531 0-14.769531-6.625-14.769531-14.769531 0-8.144532 6.625-14.769532 14.769531-14.769532s14.769531 6.625 14.769531 14.769532c0 8.144531-6.625 14.769531-14.769531 14.769531zm0 0"/><path d="m98.460938 211.691406c-24.429688 0-44.308594 19.878906-44.308594 44.308594s19.878906 44.308594 44.308594 44.308594c24.433593 0 44.308593-19.878906 44.308593-44.308594s-19.875-44.308594-44.308593-44.308594zm0 59.078125c-8.144532 0-14.769532-6.625-14.769532-14.769531s6.625-14.769531 14.769532-14.769531c8.144531 0 14.769531 6.625 14.769531 14.769531s-6.625 14.769531-14.769531 14.769531zm0 0"/><path d="m206.769531 211.691406c-24.429687 0-44.308593 19.878906-44.308593 44.308594s19.878906 44.308594 44.308593 44.308594c24.429688 0 44.308594-19.878906 44.308594-44.308594s-19.878906-44.308594-44.308594-44.308594zm0 59.078125c-8.144531 0-14.769531-6.625-14.769531-14.769531s6.625-14.769531 14.769531-14.769531 14.769531 6.625 14.769531 14.769531-6.625 14.769531-14.769531 14.769531zm0 0"/><path d="m98.460938 359.382812c-24.429688 0-44.308594 19.878907-44.308594 44.308594 0 24.433594 19.878906 44.308594 44.308594 44.308594 24.433593 0 44.308593-19.875 44.308593-44.308594 0-24.429687-19.875-44.308594-44.308593-44.308594zm0 59.078126c-8.144532 0-14.769532-6.625-14.769532-14.769532 0-8.144531 6.625-14.769531 14.769532-14.769531 8.144531 0 14.769531 6.625 14.769531 14.769531 0 8.144532-6.625 14.769532-14.769531 14.769532zm0 0"/><path d="m206.769531 359.382812c-24.429687 0-44.308593 19.878907-44.308593 44.308594 0 24.433594 19.878906 44.308594 44.308593 44.308594 24.429688 0 44.308594-19.875 44.308594-44.308594 0-24.429687-19.878906-44.308594-44.308594-44.308594zm0 59.078126c-8.144531 0-14.769531-6.625-14.769531-14.769532 0-8.144531 6.625-14.769531 14.769531-14.769531s14.769531 6.625 14.769531 14.769531c0 8.144532-6.625 14.769532-14.769531 14.769532zm0 0"/></svg>