<svg viewBox="-103 0 512 512" xmlns="http://www.w3.org/2000/svg"><path d="m260.921875 0h-216.613281c-24.433594 0-44.308594 19.875-44.308594 44.308594v423.382812c0 24.433594 19.875 44.308594 44.308594 44.308594h216.613281c24.433594 0 44.308594-19.875 44.308594-44.308594v-423.382812c0-24.433594-19.875-44.308594-44.308594-44.308594zm14.769531 467.691406c0 8.144532-6.625 14.769532-14.769531 14.769532h-216.613281c-8.144532 0-14.769532-6.625-14.769532-14.769532v-423.382812c0-8.144532 6.625-14.769532 14.769532-14.769532h216.613281c8.144531 0 14.769531 6.625 14.769531 14.769532zm0 0"/><path d="m182.152344 64h-59.074219c-29.863281 0-54.15625 24.292969-54.15625 54.152344 0 29.863281 24.292969 54.15625 54.15625 54.15625h59.074219c29.863281 0 54.15625-24.292969 54.15625-54.15625 0-29.859375-24.292969-54.152344-54.15625-54.152344zm-83.691406 54.152344c0-13.570313 11.042968-24.613282 24.617187-24.613282h14.769531v49.230469h-14.769531c-13.574219 0-24.617187-11.042969-24.617187-24.617187zm83.691406 24.617187h-14.769532v-49.230469h14.769532c13.574218 0 24.617187 11.042969 24.617187 24.613282 0 13.574218-11.042969 24.617187-24.617187 24.617187zm0 0"/><path d="m182.152344 201.847656h-59.074219c-29.863281 0-54.15625 24.292969-54.15625 54.152344s24.292969 54.152344 54.15625 54.152344h59.074219c29.863281 0 54.15625-24.292969 54.15625-54.152344s-24.292969-54.152344-54.15625-54.152344zm-83.691406 54.152344c0-13.574219 11.042968-24.617188 24.617187-24.617188h14.769531v49.234376h-14.769531c-13.574219 0-24.617187-11.042969-24.617187-24.617188zm83.691406 24.617188h-14.769532v-49.234376h14.769532c13.574218 0 24.617187 11.042969 24.617187 24.617188s-11.042969 24.617188-24.617187 24.617188zm0 0"/><path d="m182.152344 339.691406h-59.074219c-29.863281 0-54.15625 24.292969-54.15625 54.15625 0 29.859375 24.292969 54.152344 54.15625 54.152344h59.074219c29.863281 0 54.15625-24.292969 54.15625-54.152344 0-29.863281-24.292969-54.15625-54.15625-54.15625zm-83.691406 54.15625c0-13.574218 11.042968-24.617187 24.617187-24.617187h14.769531v49.230469h-14.769531c-13.574219 0-24.617187-11.042969-24.617187-24.613282zm83.691406 24.613282h-14.769532v-49.230469h14.769532c13.574218 0 24.617187 11.042969 24.617187 24.617187 0 13.570313-11.042969 24.613282-24.617187 24.613282zm0 0"/></svg>