<svg viewBox="-54 0 512 512" xmlns="http://www.w3.org/2000/svg"><path d="m162.460938 201.847656h-4.921876v-4.925781c0-8.15625-6.613281-14.769531-14.769531-14.769531s-14.769531 6.613281-14.769531 14.769531v4.925781h-4.921875c-8.15625 0-14.769531 6.609375-14.769531 14.769532 0 8.15625 6.613281 14.765624 14.769531 14.765624h4.921875v4.925782c0 8.15625 6.613281 14.769531 14.769531 14.769531s14.769531-6.613281 14.769531-14.769531v-4.925782h4.921876c8.15625 0 14.769531-6.609374 14.769531-14.765624 0-8.160157-6.613281-14.769532-14.769531-14.769532zm0 0"/><path d="m324.921875 418.460938h-118.152344v-49.40625c22.15625-1.902344 39.582031-19.898438 40.390625-42.550782l8.414063-235.363281c17.414062-5.976563 29.964843-22.5 29.964843-41.910156v-34.460938c0-8.15625-6.613281-14.769531-14.769531-14.769531h-256c-8.15625 0-14.769531 6.613281-14.769531 14.769531v34.460938c0 19.410156 12.550781 35.933593 29.960938 41.910156l8.414062 235.367187c.8125 22.648438 18.238281 40.644532 40.394531 42.546876v98.636718c0 24.433594 19.875 44.308594 44.304688 44.308594h265.847656c8.15625 0 14.769531-6.613281 14.769531-14.769531 0-43.433594-35.335937-78.769531-78.769531-78.769531zm-216.613281-49.230469h68.921875v49.230469h-68.921875zm111.640625-108.308594h-154.359375l-3.167969-88.613281h160.695313zm-160.34375-167.382813h166.328125l-1.757813 49.230469h-162.8125zm-30.066407-64h226.460938v19.691407c0 8.144531-6.625 14.769531-14.769531 14.769531h-196.921875c-8.144532 0-14.769532-6.625-14.769532-14.769531zm38.355469 295.910157-1.25-34.988281h152.25l-1.25 34.988281c-.285156 7.988281-6.769531 14.242187-14.761719 14.242187h-120.226562c-7.992188 0-14.476562-6.253906-14.761719-14.242187zm55.183594 157.011719c-8.144531 0-14.769531-6.625-14.769531-14.769532v-19.691406h216.613281c22.003906 0 40.679687 14.507812 46.96875 34.460938zm0 0"/></svg>