<svg viewBox="-24 1 511 511.9992" xmlns="http://www.w3.org/2000/svg"><path d="m213.570312 126.035156c28.796876-28.792968 28.796876-75.644531 0-104.4375-28.792968-28.796875-75.644531-28.796875-104.4375 0l-43.515624 43.507813c0 .003906-.003907.003906-.003907.007812-.003906 0-.003906.003907-.003906.003907l-43.511719 43.511718c-28.796875 28.792969-28.796875 75.648438 0 104.441406 14.394532 14.398438 33.308594 21.597657 52.21875 21.597657s37.824219-7.199219 52.222656-21.597657zm-83.550781-83.550781c8.636719-8.636719 19.984375-12.957031 31.332031-12.957031 11.34375 0 22.691407 4.320312 31.332032 12.957031 17.277344 17.273437 17.277344 45.386719 0 62.664063l-33.074219 33.074218-62.664063-62.664062zm-87.035156 149.699219c-17.277344-17.277344-17.277344-45.390625 0-62.667969l33.074219-33.070313 62.664062 62.664063-33.074218 33.074219c-17.277344 17.273437-45.386719 17.273437-62.664063 0zm0 0"/><path d="m442.511719 223.453125-87.035157-87.03125c-28.796874-28.796875-75.648437-28.796875-104.441406 0-28.792968 28.792969-28.792968 75.644531 0 104.4375l43.511719 43.515625c.003906 0 .003906 0 .003906.003906.003907 0 .003907.003906.007813.003906l43.511718 43.511719c14.394532 14.398438 33.308594 21.597657 52.21875 21.597657 18.914063 0 37.824219-7.199219 52.222657-21.597657 28.792969-28.792969 28.792969-75.644531 0-104.441406zm-170.589844-66.144531c8.640625-8.636719 19.984375-12.957032 31.332031-12.957032s22.695313 4.316407 31.332032 12.957032l33.074218 33.074218-62.664062 62.664063-33.074219-33.074219c-17.277344-17.277344-17.277344-45.386718 0-62.664062zm149.699219 149.699218c-17.277344 17.277344-45.386719 17.277344-62.664063 0l-33.074219-33.074218 62.667969-62.664063 33.070313 33.074219c17.277344 17.277344 17.277344 45.386719 0 62.664062zm0 0"/><path d="m293.40625 364.296875h-123.082031c-40.722657 0-73.851563 33.128906-73.851563 73.851563 0 40.722656 33.128906 73.851562 73.851563 73.851562h123.082031c40.722656 0 73.851562-33.128906 73.851562-73.851562 0-40.722657-33.128906-73.851563-73.851562-73.851563zm-167.394531 73.851563c0-24.433594 19.878906-44.3125 44.3125-44.3125h46.769531v88.621093h-46.769531c-24.433594 0-44.3125-19.875-44.3125-44.308593zm167.394531 44.308593h-46.769531v-88.621093h46.769531c24.433594 0 44.3125 19.878906 44.3125 44.3125 0 24.433593-19.878906 44.308593-44.3125 44.308593zm0 0"/></svg>