<svg viewBox="0 0 512 512" xmlns="http://www.w3.org/2000/svg"><path d="m252.496094 158.21875c-12.917969-7.382812-23.265625-18.320312-29.917969-31.628906l-6.679687-13.359375h5.640624c19 0 34.460938-15.460938 34.460938-34.460938v-44.308593c0-19-15.460938-34.460938-34.460938-34.460938h-137.847656c-19 0-34.460937 15.460938-34.460937 34.460938v44.308593c0 19 15.460937 34.460938 34.460937 34.460938h5.640625l-6.679687 13.359375c-6.652344 13.308594-17 24.246094-29.917969 31.628906-32.527344 18.585938-52.734375 53.40625-52.734375 90.871094v218.601562c0 24.433594 22.085938 44.308594 49.230469 44.308594h206.769531c27.144531 0 49.230469-19.875 49.230469-44.308594v-218.601562c0-37.464844-20.207031-72.285156-52.734375-90.871094zm-173.726563-79.449219v-44.308593c0-2.714844 2.207031-4.921876 4.921875-4.921876h137.847656c2.714844 0 4.921876 2.207032 4.921876 4.921876v44.308593c0 2.714844-2.207032 4.921875-4.921876 4.921875h-137.847656c-2.714844 0-4.921875-2.207031-4.921875-4.921875zm196.921875 388.921875c0 8.007813-9.015625 14.769532-19.691406 14.769532h-206.769531c-10.675781 0-19.691407-6.761719-19.691407-14.769532v-218.601562c0-26.890625 14.503907-51.882813 37.851563-65.226563 18-10.285156 32.410156-25.519531 41.683594-44.0625l13.285156-26.570312h60.511719l13.285156 26.570312c9.273438 18.542969 23.6875 33.777344 41.683594 44.0625 23.347656 13.34375 37.851562 38.335938 37.851562 65.226563zm0 0"/><path d="m231.382812 260.921875h-157.535156c-8.15625 0-14.769531 6.613281-14.769531 14.769531v157.539063c0 8.15625 6.613281 14.769531 14.769531 14.769531h157.535156c8.160157 0 14.769532-6.613281 14.769532-14.769531v-157.539063c0-8.15625-6.609375-14.769531-14.769532-14.769531zm-14.765624 157.539063h-128v-128h128zm0 0"/><path d="m497.230469 280.617188h-152.605469c-8.160156 0-14.769531 6.609374-14.769531 14.765624v172.308594c0 24.433594 19.875 44.308594 44.304687 44.308594h93.53125c24.433594 0 44.308594-19.875 44.308594-44.308594v-172.308594c0-8.15625-6.613281-14.765624-14.769531-14.765624zm-29.539063 201.84375h-93.53125c-8.140625 0-14.769531-6.625-14.769531-14.769532v-157.539062h123.070313v29.539062h-29.539063c-8.15625 0-14.769531 6.613282-14.769531 14.769532s6.613281 14.769531 14.769531 14.769531h29.539063v29.539062h-29.539063c-8.15625 0-14.769531 6.613281-14.769531 14.769531s6.613281 14.769532 14.769531 14.769532h29.539063v39.382812c0 8.144532-6.625 14.769532-14.769532 14.769532zm0 0"/></svg>