<svg viewBox="-84 0 512 512" xmlns="http://www.w3.org/2000/svg"><path d="m344.617188 88.617188v-44.308594c0-24.433594-19.878907-44.308594-44.308594-44.308594h-256c-24.433594 0-44.308594 19.875-44.308594 44.308594v44.308594c0 22.765624 17.261719 41.566406 39.382812 44.027343v22.566407c0 7.953124-4.417968 15.105468-11.53125 18.667968-17.179687 8.59375-27.851562 25.871094-27.851562 45.078125v248.734375c0 24.433594 19.875 44.308594 44.308594 44.308594h256c24.429687 0 44.308594-19.875 44.308594-44.308594v-248.734375c0-19.210937-10.675782-36.484375-27.855469-45.078125-7.113281-3.5625-11.53125-10.714844-11.53125-18.667968v-22.566407c22.121093-2.460937 39.386719-21.261719 39.386719-44.027343zm-315.078126 0v-44.308594c0-8.144532 6.625-14.769532 14.769532-14.769532h256c8.144531 0 14.769531 6.625 14.769531 14.769532v44.308594c0 8.140624-6.625 14.765624-14.769531 14.765624h-256c-8.144532 0-14.769532-6.625-14.769532-14.765624zm285.539063 310.152343h-285.539063v-128h285.539063zm-14.769531 83.691407h-256c-8.144532 0-14.769532-6.625-14.769532-14.769532v-39.382812h285.539063v39.382812c0 8.144532-6.625 14.769532-14.769531 14.769532zm14.769531-263.503907v22.273438h-285.539063v-22.273438c0-7.953125 4.417969-15.105469 11.53125-18.664062 17.179688-8.597657 27.851563-25.871094 27.851563-45.082031v-22.289063h206.769531v22.289063c0 19.210937 10.671875 36.484374 27.851563 45.082031 7.113281 3.558593 11.535156 10.710937 11.535156 18.664062zm0 0"/><path d="m142.765625 349.785156h.125l14.769531-.125.125 14.769532c.066406 8.117187 6.667969 14.648437 14.765625 14.648437h.125c8.15625-.070313 14.714844-6.734375 14.644531-14.894531l-.121093-14.769532 14.769531-.121093c8.15625-.070313 14.710938-6.734375 14.644531-14.894531-.066406-8.113282-6.667969-14.644532-14.765625-14.644532-.042968 0-.085937 0-.125 0l-14.769531.121094-.125-14.765625c-.066406-8.117187-6.667969-14.648437-14.765625-14.648437-.042969 0-.082031 0-.125 0-8.15625.070312-14.714844 6.734374-14.644531 14.894531l.121093 14.769531-14.769531.121094c-8.15625.066406-14.710937 6.734375-14.644531 14.890625.066406 8.117187 6.667969 14.648437 14.765625 14.648437zm0 0"/></svg>