<svg viewBox="0 1 511.99963 511" xmlns="http://www.w3.org/2000/svg"><path d="m507.675781 110.089844-105.265625-105.265625c-5.765625-5.765625-15.117187-5.765625-20.886718 0-5.769532 5.769531-5.769532 15.121093 0 20.886719l15.871093 15.875-88.761719 88.761718-50.960937-50.960937c-5.765625-5.765625-15.117187-5.765625-20.886719 0-5.769531 5.769531-5.769531 15.121093 0 20.886719l24.644532 24.644531-144.328126 144.332031c-8.371093 8.367188-12.980468 19.496094-12.980468 31.328125 0 4.964844.820312 9.796875 2.378906 14.359375l-31.234375 31.230469c-13.433594 13.4375-13.433594 35.300781 0 48.738281l10.722656 10.71875-81.664062 81.664062c-5.765625 5.765626-5.765625 15.117188 0 20.886719 2.886719 2.882813 6.664062 4.324219 10.445312 4.324219 3.777344 0 7.558594-1.441406 10.441407-4.328125l81.664062-81.660156 10.71875 10.71875c6.71875 6.71875 15.542969 10.078125 24.367188 10.078125 8.828124 0 17.652343-3.359375 24.371093-10.078125l31.230469-31.230469c4.5625 1.554688 9.394531 2.375 14.359375 2.375 11.832031 0 22.960937-4.609375 31.328125-12.976562l144.328125-144.328126 24.644531 24.644532c2.886719 2.882812 6.664063 4.328125 10.445313 4.328125 3.777343 0 7.558593-1.441407 10.441406-4.328125 5.769531-5.769532 5.769531-15.117188 0-20.886719l-50.960937-50.960937 88.765624-88.761719 15.871094 15.871093c2.882813 2.882813 6.664063 4.328126 10.441406 4.328126 3.78125 0 7.5625-1.441407 10.445313-4.328126 5.769531-5.769531 5.769531-15.117187.003906-20.886718zm-362.230469 306.253906c-1.253906 1.253906-2.71875 1.441406-3.480468 1.441406-.761719 0-2.226563-.1875-3.480469-1.441406l-42.328125-42.324219c-1.921875-1.921875-1.921875-5.042969 0-6.964843l28.042969-28.042969 49.289062 49.289062zm76.917969-41.832031c-5.757812 5.757812-15.121093 5.761719-20.882812.003906l-63.492188-63.492187c-2.792969-2.789063-4.328125-6.5-4.328125-10.445313s1.535156-7.652344 4.328125-10.441406l39.0625-39.066407 24.644531 24.644532c2.882813 2.882812 6.664063 4.328125 10.445313 4.328125 3.777344 0 7.558594-1.445313 10.441406-4.328125 5.765625-5.765625 5.765625-15.117188 0-20.886719l-24.644531-24.644531 31.746094-31.746094 24.644531 24.644531c2.882813 2.882813 6.664063 4.328125 10.441406 4.328125 3.78125 0 7.5625-1.441406 10.445313-4.328125 5.765625-5.765625 5.765625-15.117187 0-20.886719l-24.644532-24.644531 31.742188-31.746093 84.378906 84.378906zm138.902344-191.53125-31.746094-31.746094 88.761719-88.761719 31.746094 31.746094zm0 0"/></svg>