<svg viewBox="0 0 512.00002 512.00002" xmlns="http://www.w3.org/2000/svg"><path d="m490.34375 92.046875-70.390625-70.394531c-13.964844-13.960938-32.53125-21.652344-52.277344-21.652344-19.746093 0-38.3125 7.691406-52.277343 21.652344l-293.742188 293.746094c-13.964844 13.964843-21.65625 32.53125-21.65625 52.277343 0 19.75 7.691406 38.3125 21.65625 52.277344l70.390625 70.394531c13.964844 13.960938 32.53125 21.652344 52.277344 21.652344 19.746093 0 38.3125-7.691406 52.277343-21.652344l293.742188-293.746094c13.964844-13.964843 21.65625-32.53125 21.65625-52.277343 0-19.746094-7.691406-38.3125-21.65625-52.277344zm-314.652344 377.386719c-8.378906 8.378906-19.519531 12.992187-31.367187 12.992187-11.847657 0-22.988281-4.613281-31.367188-12.992187l-70.390625-70.390625c-17.296875-17.296875-17.296875-45.4375 0-62.734375l59.398438-59.398438 133.125 133.125zm80.308594-80.308594-133.125-133.125 133.125-133.125 133.125 133.125zm213.433594-213.433594-59.398438 59.398438-133.125-133.125 59.398438-59.402344c8.378906-8.378906 19.519531-12.992188 31.367187-12.992188 11.847657 0 22.988281 4.617188 31.367188 12.992188l70.390625 70.394531c17.296875 17.296875 17.296875 45.4375 0 62.734375zm0 0"/><path d="m307.160156 266.457031c2.886719 2.886719 6.667969 4.328125 10.453125 4.328125 3.78125 0 7.566407-1.441406 10.453125-4.328125 5.777344-5.773437 5.777344-15.136719 0-20.910156l-15.402344-15.402344c-5.773437-5.777343-15.136718-5.773437-20.910156 0-5.773437 5.773438-5.773437 15.132813 0 20.910157zm0 0"/><path d="m245.546875 183.929688c-5.777344 5.773437-5.777344 15.136718 0 20.910156l15.402344 15.402344c2.886719 2.886718 6.671875 4.332031 10.453125 4.332031 3.785156 0 7.570312-1.445313 10.457031-4.332031 5.773437-5.773438 5.773437-15.136719 0-20.910157l-15.40625-15.402343c-5.773437-5.773438-15.132813-5.773438-20.90625 0zm0 0"/><path d="m251.050781 291.753906c-5.773437-5.773437-15.136719-5.773437-20.910156 0-5.773437 5.777344-5.773437 15.136719 0 20.910156l15.40625 15.40625c2.886719 2.886719 6.667969 4.328126 10.453125 4.328126s7.570312-1.441407 10.453125-4.332032c5.777344-5.773437 5.777344-15.132812 0-20.910156zm0 0"/><path d="m204.839844 245.546875c-5.769532-5.777344-15.132813-5.773437-20.910156 0-5.773438 5.773437-5.773438 15.132813 0 20.910156l15.40625 15.402344c2.886718 2.886719 6.667968 4.332031 10.453124 4.332031 3.78125 0 7.566407-1.445312 10.453126-4.332031 5.777343-5.773437 5.777343-15.136719 0-20.910156zm0 0"/></svg>