<svg viewBox="0 0 512 512" xmlns="http://www.w3.org/2000/svg"><path d="m467.691406 162.460938h-47.011718l30.34375-36.738282c1.722656-2.082031 4.609374-2.691406 7.027343-1.488281 13.613281 6.800781 29.988281 4.140625 40.746094-6.617187l2.863281-2.863282c6.667969-6.667968 10.339844-15.535156 10.339844-24.96875 0-9.429687-3.671875-18.296875-10.339844-24.964844l-54.480468-54.480468c-6.667969-6.667969-15.535157-10.339844-24.964844-10.339844-9.433594 0-18.300782 3.671875-24.96875 10.339844l-2.863282 2.863281c-10.757812 10.761719-13.417968 27.136719-6.617187 40.746094 1.207031 2.417969.597656 5.304687-1.484375 7.023437l-122.875 101.488282h-219.097656c-24.433594 0-44.308594 19.878906-44.308594 44.308593v39.382813c0 24.433594 19.875 44.308594 44.308594 44.308594h1.253906l16.117188 181.15625c2.046874 23.023437 21.019531 40.382812 44.132812 40.382812h300.375c23.113281 0 42.085938-17.359375 44.132812-40.382812l16.117188-181.15625h1.253906c24.433594 0 44.308594-19.875 44.308594-44.308594v-39.382813c0-24.429687-19.875-44.308593-44.308594-44.308593zm-62.601562-78.710938c12.746094-10.527344 16.488281-28.210938 9.097656-43-1.109375-2.226562-.675781-4.898438 1.082031-6.660156l2.863281-2.863282c1.472657-1.46875 3.1875-1.6875 4.082032-1.6875.890625 0 2.605468.21875 4.078125 1.6875l54.480469 54.484376c1.46875 1.46875 1.6875 3.183593 1.6875 4.078124 0 .890626-.21875 2.605469-1.6875 4.078126l-2.863282 2.863281c-1.757812 1.757812-4.433594 2.191406-6.65625 1.082031-14.789062-7.390625-32.472656-3.648438-43.003906 9.097656l-45.882812 55.550782h-72.578126zm15.808594 385.25c-.679688 7.675781-7.007813 13.460938-14.710938 13.460938h-300.375c-7.703125 0-14.027344-5.785157-14.710938-13.460938l-15.882812-178.539062h361.5625zm61.5625-222.847656c0 8.144531-6.625 14.769531-14.769532 14.769531h-423.382812c-8.144532 0-14.769532-6.625-14.769532-14.769531v-39.382813c0-8.144531 6.625-14.769531 14.769532-14.769531h423.382812c8.144532 0 14.769532 6.625 14.769532 14.769531zm0 0"/><path d="m216.617188 401.230469h24.613281v24.617187c0 8.15625 6.613281 14.769532 14.769531 14.769532s14.769531-6.613282 14.769531-14.769532v-24.617187h24.613281c8.160157 0 14.769532-6.613281 14.769532-14.769531s-6.609375-14.769532-14.769532-14.769532h-24.613281v-24.613281c0-8.15625-6.613281-14.769531-14.769531-14.769531s-14.769531 6.613281-14.769531 14.769531v24.613281h-24.613281c-8.160157 0-14.769532 6.613282-14.769532 14.769532s6.609375 14.769531 14.769532 14.769531zm0 0"/></svg>