<svg viewBox="-102 0 512 512.00001" xmlns="http://www.w3.org/2000/svg"><path d="m263.457031 124.273438h-54.679687v-94.449219h64.621094c8.234374 0 14.914062-6.675781 14.914062-14.910157 0-8.238281-6.679688-14.914062-14.914062-14.914062h-193.863282c-32.890625 0-59.652344 26.757812-59.652344 59.652344 0 8.234375 6.675782 14.910156 14.914063 14.910156 8.234375 0 14.910156-6.675781 14.910156-14.910156 0-16.449219 13.382813-29.828125 29.828125-29.828125h19.882813v94.449219h-54.679688c-24.667969 0-44.738281 20.066406-44.738281 44.734374v298.253907c0 24.667969 20.070312 44.738281 44.738281 44.738281h218.71875c24.667969 0 44.738281-20.070312 44.738281-44.738281v-298.253907c0-24.667968-20.070312-44.734374-44.738281-44.734374zm-134.214843-94.449219h49.710937v94.449219h-49.710937zm-84.503907 124.273437h218.71875c8.222657 0 14.910157 6.6875 14.910157 14.910156v44.738282h-248.542969v-44.738282c0-8.222656 6.691406-14.910156 14.914062-14.910156zm233.628907 238.601563h-248.542969v-149.125h248.542969zm-14.910157 89.476562h-218.71875c-8.222656 0-14.914062-6.691406-14.914062-14.914062v-44.738281h248.542969v44.738281c0 8.222656-6.6875 14.914062-14.910157 14.914062zm0 0"/><path d="m114.332031 333.046875h24.851563v24.855469c0 8.234375 6.679687 14.914062 14.914062 14.914062s14.910156-6.679687 14.910156-14.914062v-24.855469h24.855469c8.238281 0 14.914063-6.675781 14.914063-14.910156 0-8.238281-6.675782-14.914063-14.914063-14.914063h-24.855469v-24.855468c0-8.234376-6.675781-14.910157-14.910156-14.910157s-14.914062 6.675781-14.914062 14.910157v24.855468h-24.851563c-8.238281 0-14.914062 6.675782-14.914062 14.914063 0 8.234375 6.675781 14.910156 14.914062 14.910156zm0 0"/></svg>