<svg viewBox="-103 0 512 512.00099" xmlns="http://www.w3.org/2000/svg"><path d="m305.230469 206.769531v-59.078125c0-24.429687-19.875-44.308594-44.308594-44.308594h-44.304687v-88.613281c0-8.15625-6.613282-14.769531-14.769532-14.769531h-98.460937c-8.15625 0-14.769531 6.613281-14.769531 14.769531v88.613281h-44.308594c-24.433594 0-44.308594 19.878907-44.308594 44.308594v59.078125c0 22.765625 17.261719 41.570313 39.386719 44.027344v113.792969c-22.125 2.457031-39.386719 21.257812-39.386719 44.027344v59.074218c0 24.433594 19.875 44.308594 44.308594 44.308594h216.613281c24.433594 0 44.308594-19.875 44.308594-44.308594v-59.074218c0-22.765626-17.261719-41.570313-39.382813-44.027344v-113.792969c22.121094-2.457031 39.382813-21.261719 39.382813-44.027344zm-187.074219-177.230469h68.921875v73.84375h-68.921875zm-88.617188 177.230469v-59.078125c0-8.144531 6.625-14.769531 14.769532-14.769531h216.613281c8.144531 0 14.769531 6.625 14.769531 14.769531v59.078125c0 8.144531-6.625 14.769531-14.769531 14.769531h-216.613281c-8.144532 0-14.769532-6.625-14.769532-14.769531zm206.769532 152.613281h-167.386719v-108.304687h167.386719zm39.382812 49.234376v59.074218c0 8.144532-6.625 14.769532-14.769531 14.769532h-216.613281c-8.144532 0-14.769532-6.625-14.769532-14.769532v-59.074218c0-8.144532 6.625-14.769532 14.769532-14.769532h216.613281c8.144531 0 14.769531 6.625 14.769531 14.769532zm0 0"/><path d="m128.003906 320h9.84375v9.84375c0 8.15625 6.613282 14.769531 14.769532 14.769531s14.769531-6.613281 14.769531-14.769531v-9.84375h9.839843c8.15625 0 14.769532-6.613281 14.769532-14.769531s-6.613282-14.769531-14.769532-14.769531h-9.839843v-9.839844c0-8.160156-6.613281-14.769532-14.769531-14.769532s-14.769532 6.609376-14.769532 14.769532v9.839844h-9.84375c-8.15625 0-14.769531 6.613281-14.769531 14.769531s6.613281 14.769531 14.769531 14.769531zm0 0"/></svg>