<svg viewBox="0 0 511 511.99962" xmlns="http://www.w3.org/2000/svg"><path d="m484.992188 27.503906c-19.472657-19.472656-46.382813-29.390625-73.839844-27.207031-27.457032 2.183594-52.464844 16.234375-68.617188 38.542969l-33.820312 46.714844-25.242188-25.242188c-5.765625-5.769531-15.117187-5.769531-20.886718 0-5.769532 5.765625-5.769532 15.117188 0 20.886719l27.050781 27.046875-263.453125 263.453125c-2.359375 2.359375-3.851563 5.445312-4.230469 8.761719l-7.28125 63.535156c-.515625 4.476562 1.042969 8.941406 4.230469 12.125l8.292968 8.296875-22.371093 22.367187c-5.765625 5.769532-5.765625 15.121094 0 20.886719 2.886719 2.886719 6.664062 4.328125 10.445312 4.328125 3.777344 0 7.558594-1.441406 10.441407-4.328125l22.371093-22.367187 8.296875 8.292968c2.78125 2.785156 6.546875 4.328125 10.441406 4.328125.558594 0 1.121094-.03125 1.679688-.097656l63.539062-7.28125c3.3125-.382813 6.402344-1.871094 8.761719-4.230469l263.449219-263.453125 27.050781 27.050781c2.882813 2.882813 6.664063 4.324219 10.441407 4.324219 3.78125 0 7.5625-1.441406 10.445312-4.324219 5.765625-5.769531 5.765625-15.121093 0-20.886718l-25.246094-25.246094 46.71875-33.816406c22.308594-16.152344 36.355469-41.160156 38.539063-68.617188 2.1875-27.453125-7.730469-54.367187-27.207031-73.84375zm-136.976563 209.824219-27.050781-27.046875c-5.765625-5.769531-15.117188-5.769531-20.886719 0-5.769531 5.765625-5.769531 15.117188 0 20.886719l27.050781 27.046875-35.355468 35.355468-27.046876-27.050781c-5.765624-5.765625-15.117187-5.765625-20.886718 0-5.769532 5.769531-5.769532 15.121094 0 20.886719l27.050781 27.050781-35.351563 35.351563-27.050781-27.050782c-5.765625-5.765624-15.117187-5.765624-20.886719 0-5.769531 5.769532-5.769531 15.121094 0 20.886719l27.050782 27.050781-35.355469 35.351563-27.046875-27.050781c-5.769531-5.765625-15.121094-5.765625-20.886719 0-5.769531 5.769531-5.769531 15.121094 0 20.886718l27.046875 27.050782-34.851562 34.855468-51.335938 5.882813-27.394531-27.394531 5.886719-51.332032 259.808594-259.808593 72.84375 72.84375zm134.742187-138.320313c-1.5 18.816407-11.128906 35.957032-26.417968 47.027344l-50.546875 36.597656-75.925781-75.925781 36.597656-50.546875c11.066406-15.289062 28.210937-24.917968 47.027344-26.417968 18.816406-1.496094 37.269531 5.300781 50.617187 18.648437s20.144531 31.796875 18.648437 50.617187zm0 0"/></svg>