<svg viewBox="-103 0 512 512" xmlns="http://www.w3.org/2000/svg"><path d="m260.921875 0h-216.613281c-24.433594 0-44.308594 19.875-44.308594 44.308594v423.382812c0 24.433594 19.875 44.308594 44.308594 44.308594h216.613281c24.433594 0 44.308594-19.875 44.308594-44.308594v-423.382812c0-24.433594-19.875-44.308594-44.308594-44.308594zm14.769531 467.691406c0 8.144532-6.625 14.769532-14.769531 14.769532h-216.613281c-8.144532 0-14.769532-6.625-14.769532-14.769532v-423.382812c0-8.144532 6.625-14.769532 14.769532-14.769532h216.613281c8.144531 0 14.769531 6.625 14.769531 14.769532zm0 0"/><path d="m152.617188 196.921875c-15.921876 0-30.382813 6.34375-41.019532 16.621094-.253906.222656-.511718.441406-.753906.683593-.246094.246094-.464844.503907-.6875.757813-10.277344 10.636719-16.617188 25.09375-16.617188 41.015625 0 32.574219 26.5 59.078125 59.078126 59.078125 15.921874 0 30.378906-6.34375 41.015624-16.621094.253907-.222656.511719-.441406.753907-.683593.246093-.242188.464843-.5.6875-.757813 10.277343-10.636719 16.617187-25.09375 16.617187-41.015625 0-32.574219-26.5-59.078125-59.074218-59.078125zm29.535156 59.078125c0 2.644531-.351563 5.203125-1.007813 7.644531l-36.171875-36.175781c2.4375-.652344 5-1.007812 7.644532-1.007812 16.285156 0 29.535156 13.25 29.535156 29.539062zm-59.074219 0c0-2.644531.351563-5.203125 1.007813-7.644531l36.171874 36.175781c-2.4375.652344-5 1.007812-7.640624 1.007812-16.289063 0-29.539063-13.25-29.539063-29.539062zm0 0"/><path d="m194.390625 71.464844c-.246094-.242188-.503906-.460938-.761719-.6875-10.632812-10.273438-25.09375-16.617188-41.011718-16.617188-32.578126 0-59.078126 26.503906-59.078126 59.078125 0 15.921875 6.339844 30.378907 16.617188 41.015625.222656.257813.441406.515625.6875.757813.242188.246093.5.464843.757812.6875 10.632813 10.273437 25.09375 16.617187 41.015626 16.617187 32.574218 0 59.074218-26.503906 59.074218-59.078125 0-15.921875-6.339844-30.378906-16.617187-41.015625-.222657-.253906-.441407-.515625-.683594-.757812zm-41.773437 12.234375c2.640624 0 5.203124.355469 7.640624 1.007812l-36.171874 36.175781c-.65625-2.441406-1.007813-5-1.007813-7.644531 0-16.289062 13.25-29.539062 29.539063-29.539062zm0 59.078125c-2.644532 0-5.207032-.355469-7.644532-1.007813l36.171875-36.175781c.65625 2.441406 1.007813 5.003906 1.007813 7.644531 0 16.289063-13.25 29.539063-29.535156 29.539063zm0 0"/><path d="m194.390625 356.988281c-.246094-.246093-.503906-.464843-.761719-.6875-10.632812-10.273437-25.09375-16.617187-41.011718-16.617187-32.578126 0-59.078126 26.503906-59.078126 59.078125 0 15.921875 6.339844 30.378906 16.617188 41.015625.222656.253906.441406.515625.6875.757812.242188.242188.5.460938.757812.6875 10.632813 10.273438 25.09375 16.617188 41.015626 16.617188 32.574218 0 59.074218-26.503906 59.074218-59.078125 0-15.921875-6.339844-30.378907-16.617187-41.015625-.222657-.257813-.441407-.515625-.683594-.757813zm-41.773437 12.234375c2.640624 0 5.203124.355469 7.640624 1.007813l-36.171874 36.175781c-.65625-2.441406-1.007813-5.003906-1.007813-7.644531 0-16.289063 13.25-29.539063 29.539063-29.539063zm0 59.078125c-2.644532 0-5.207032-.355469-7.644532-1.007812l36.171875-36.175781c.65625 2.441406 1.007813 5 1.007813 7.644531 0 16.289062-13.25 29.539062-29.535156 29.539062zm0 0"/></svg>