<svg viewBox="-81 0 512 512" xmlns="http://www.w3.org/2000/svg"><path d="m347.921875 313.402344c-3.671875-27.035156-13.625-52.753906-29.289063-75.429688-17.8125-25.769531-41.878906-46.070312-70.015624-59.1875v-85.246094h2.449218c25.789063 0 46.769532-20.984374 46.769532-46.769531 0-25.789062-20.980469-46.769531-46.769532-46.769531h-152.59375c-25.789062 0-46.769531 20.980469-46.769531 46.769531 0 25.785157 20.980469 46.769531 46.769531 46.769531h2.449219v85.246094c-28.140625 13.117188-52.203125 33.417969-70.015625 59.1875-10.625 15.367188-18.617188 32.148438-23.808594 49.792969-2.773437 9.410156-4.753906 19.078125-5.894531 28.917969-.800781 6.78125-1.203125 13.636718-1.203125 20.546875 0 46.710937 18.117188 90.59375 51.023438 123.550781 32.90625 32.953125 76.761718 51.148438 123.46875 51.21875h.277343c46.632813 0 90.476563-18.136719 123.480469-51.089844 31.617188-31.570312 49.652344-73.101562 51.179688-117.527344.070312-2.035156.109374-4.09375.109374-6.152343 0-8.023438-.542968-15.980469-1.617187-23.828125zm-226.773437-111.183594c5.621093-2.234375 9.3125-7.667969 9.3125-13.722656v-16.1875h24.617187c8.15625 0 14.769531-6.613282 14.769531-14.769532s-6.613281-14.769531-14.769531-14.769531h-24.617187v-19.699219h24.617187c8.15625 0 14.769531-6.613281 14.769531-14.769531s-6.613281-14.769531-14.769531-14.769531h-24.617187v-14.761719c0-8.152343-6.617188-14.769531-14.769532-14.769531h-17.21875c-9.503906 0-17.230468-7.730469-17.230468-17.230469s7.726562-17.230469 17.230468-17.230469h152.59375c9.503906 0 17.230469 7.730469 17.230469 17.230469s-7.726563 17.230469-17.230469 17.230469h-17.21875c-8.152344 0-14.769531 6.617188-14.769531 14.769531v109.726563c0 6.054687 3.691406 11.488281 9.3125 13.722656 44.871094 17.84375 76.9375 55.75 87.679687 101.160156-1.308593-.582031-2.628906-1.171875-3.957031-1.773437-16.738281-7.53125-35.710937-16.066407-71.710937-16.066407-35.988282 0-54.960938 8.535157-71.699219 16.066407-16.058594 7.230469-29.929687 13.472656-59.578125 13.472656s-43.519531-6.242187-59.578125-13.472656c-4.421875-1.988281-8.992187-4.042969-14.003906-5.996094 12.398437-41.941406 43.316406-76.582031 85.605469-93.390625zm198.851562 135.011719c0 38.832031-15.132812 75.332031-42.613281 102.773437-27.433594 27.382813-63.863281 42.457032-102.617188 42.457032h-.226562c-79.960938-.128907-145.003907-65.269532-145.003907-145.230469 0-4.027344.15625-8.015625.480469-11.972657 2.464844 1.0625 4.90625 2.167969 7.40625 3.289063 16.738281 7.53125 35.710938 16.070313 71.699219 16.070313s54.960938-8.539063 71.699219-16.070313c16.058593-7.226563 29.933593-13.46875 59.578125-13.46875 29.65625 0 43.53125 6.242187 59.589844 13.46875 6.125 2.757813 12.554687 5.640625 19.996093 8.191406.011719.167969.011719.324219.011719.492188zm0 0"/></svg>