<svg viewBox="-162 0 511 512" xmlns="http://www.w3.org/2000/svg"><path d="m148.191406 230.191406v-57.882812h24.617188c8.15625 0 14.769531-6.613282 14.769531-14.769532s-6.613281-14.769531-14.769531-14.769531h-26.511719l-17.9375-130.019531c-1.003906-7.308594-7.25-12.75-14.628906-12.75h-39.382813c-7.378906 0-13.625 5.441406-14.632812 12.75l-17.933594 130.019531h-26.511719c-8.15625 0-14.769531 6.613281-14.769531 14.769531s6.613281 14.769532 14.769531 14.769532h24.613281v57.882812l-35.054687 35.058594c-2.769531 2.769531-4.328125 6.527344-4.328125 10.441406v192c0 24.433594 19.875 44.308594 44.308594 44.308594h98.460937c24.429688 0 44.308594-19.875 44.308594-44.308594v-192c0-3.914062-1.558594-7.671875-4.328125-10.441406zm-78.769531-57.882812h49.230469v49.230468h-49.230469zm17.796875-142.769532h13.640625l15.617187 113.230469h-44.875zm-26.449219 221.539063h66.535157l30.734374 30.730469v18.5h-128v-18.5zm97.269531 167.382813h-128v-88.613282h128zm-14.769531 64h-98.460937c-8.144532 0-14.769532-6.625-14.769532-14.769532v-19.691406h128v19.691406c0 8.144532-6.625 14.769532-14.769531 14.769532zm0 0"/><path d="m74.347656 388.921875h4.921875v4.925781c0 8.15625 6.613281 14.769532 14.769531 14.769532s14.769532-6.613282 14.769532-14.769532v-4.925781h4.921875c8.15625 0 14.769531-6.613281 14.769531-14.769531s-6.613281-14.769532-14.769531-14.769532h-4.921875v-4.921874c0-8.15625-6.613282-14.769532-14.769532-14.769532s-14.769531 6.613282-14.769531 14.769532v4.921874h-4.921875c-8.15625 0-14.769531 6.613282-14.769531 14.769532s6.613281 14.769531 14.769531 14.769531zm0 0"/></svg>