<svg viewBox="-113 0 512 512.00008" xmlns="http://www.w3.org/2000/svg"><path d="m267.816406 136.863281-61.046875-45.785156v-76.304687c0-8.15625-6.609375-14.76953175-14.769531-14.76953175h-78.765625c-8.15625 0-14.769531 6.61328175-14.769531 14.76953175v76.304687l-61.046875 45.785156c-11.097657 8.324219-17.722657 21.574219-17.722657 35.445313v295.382812c0 24.433594 19.875 44.308594 44.308594 44.308594h177.230469c24.429687 0 44.304687-19.875 44.304687-44.308594v-295.382812c0-13.871094-6.625-27.121094-17.722656-35.445313zm-90.582031-107.320312v54.152343h-49.230469v-12.308593h14.777344c8.15625 0 14.765625-6.613281 14.765625-14.769531s-6.609375-14.769532-14.765625-14.769532h-14.777344v-12.304687zm-122.09375 130.953125 63.015625-47.261719h68.921875l63.015625 47.261719c3.699219 2.773437 5.90625 7.191406 5.90625 11.8125v49.230468h-206.765625v-49.230468c0-4.621094 2.207031-9.039063 5.90625-11.8125zm200.859375 198.890625h-206.765625v-108.308594h206.765625zm-14.765625 123.074219h-177.230469c-8.144531 0-14.769531-6.625-14.769531-14.769532v-78.765625h206.765625v78.765625c0 8.144532-6.621094 14.769532-14.765625 14.769532zm0 0"/><path d="m128.007812 320h9.839844v9.84375c0 8.15625 6.613282 14.769531 14.769532 14.769531s14.769531-6.613281 14.769531-14.769531v-9.84375h9.84375c8.15625 0 14.765625-6.613281 14.765625-14.769531s-6.609375-14.769531-14.765625-14.769531h-9.84375v-9.839844c0-8.15625-6.613281-14.769532-14.769531-14.769532s-14.769532 6.613282-14.769532 14.769532v9.839844h-9.839844c-8.15625 0-14.769531 6.613281-14.769531 14.769531s6.613281 14.769531 14.769531 14.769531zm0 0"/><path d="m8.167969 27.980469 49.222656 24.617187c2.121094 1.058594 4.371094 1.5625 6.59375 1.5625 5.414063 0 10.632813-2.992187 13.21875-8.167968 3.648437-7.292969.691406-16.164063-6.601563-19.8125l-49.222656-24.617188c-7.296875-3.648438-16.167968-.691406-19.816406 6.605469-3.648438 7.292969-.691406 16.164062 6.605469 19.8125zm0 0"/><path d="m70.601562 91.980469c7.292969-3.648438 10.25-12.519531 6.601563-19.8125-3.648437-7.296875-12.519531-10.253907-19.8125-6.605469l-49.222656 24.613281c-7.296875 3.652344-10.253907 12.523438-6.605469 19.816407 2.585938 5.175781 7.804688 8.167968 13.222656 8.167968 2.21875 0 4.472656-.503906 6.59375-1.5625zm0 0"/></svg>