<svg viewBox="-58 0 512 512" xmlns="http://www.w3.org/2000/svg"><path d="m96 0c-26.054688 0-49.710938 10.4375-67.023438 27.34375-.292968.25-.582031.5-.859374.773438-.273438.277343-.523438.566406-.773438.859374-16.90625 17.3125-27.34375 40.96875-27.34375 67.023438 0 52.933594 43.066406 96 96 96 26.054688 0 49.710938-10.4375 67.023438-27.34375.292968-.25.582031-.5.859374-.773438.273438-.277343.523438-.566406.773438-.859374 16.90625-17.3125 27.34375-40.96875 27.34375-67.023438 0-52.933594-43.066406-96-96-96zm66.460938 96c0 12.984375-3.757813 25.105469-10.222657 35.351562l-91.589843-91.589843c10.246093-6.464844 22.367187-10.222657 35.351562-10.222657 36.648438 0 66.460938 29.8125 66.460938 66.460938zm-132.921876 0c0-12.984375 3.757813-25.105469 10.222657-35.351562l91.589843 91.589843c-10.246093 6.464844-22.367187 10.222657-35.351562 10.222657-36.648438 0-66.460938-29.8125-66.460938-66.460938zm0 0"/><path d="m368.964844 188.976562c-.25-.292968-.5-.582031-.777344-.859374-.273438-.273438-.566406-.527344-.855469-.777344-17.316406-16.902344-40.972656-27.339844-67.023437-27.339844-52.9375 0-96 43.066406-96 96 0 26.054688 10.433594 49.710938 27.339844 67.023438.25.292968.5.582031.777343.859374.273438.273438.566407.527344.859375.777344 17.3125 16.902344 40.96875 27.339844 67.023438 27.339844 52.933594 0 96-43.066406 96-96 0-26.054688-10.4375-49.710938-27.34375-67.023438zm-68.65625.5625c12.984375 0 25.105468 3.757813 35.351562 10.222657l-91.589844 91.589843c-6.464843-10.246093-10.222656-22.367187-10.222656-35.351562 0-36.648438 29.8125-66.460938 66.460938-66.460938zm0 132.921876c-12.988282 0-25.105469-3.757813-35.351563-10.222657l91.589844-91.589843c6.464844 10.246093 10.222656 22.367187 10.222656 35.351562 0 36.648438-29.816406 66.460938-66.460937 66.460938zm0 0"/><path d="m96 320c-52.933594 0-96 43.066406-96 96s43.066406 96 96 96 96-43.066406 96-96-43.066406-96-96-96zm-66.460938 96c0-31.570312 22.132813-58.050781 51.691407-64.785156v129.570312c-29.558594-6.734375-51.691407-33.214844-51.691407-64.785156zm81.230469 64.785156v-129.570312c29.558594 6.734375 51.691407 33.214844 51.691407 64.785156s-22.132813 58.050781-51.691407 64.785156zm0 0"/></svg>