<svg viewBox="-94 0 512 512" xmlns="http://www.w3.org/2000/svg"><path d="m320.839844 4.539062c-2.785156-2.894531-6.636719-4.539062-10.652344-4.539062h-295.425781c-4.015625 0-7.867188 1.644531-10.652344 4.539062-2.785156 2.90625-4.265625 6.8125-4.0976562 10.832032l18.5507812 454.132812c.976562 23.828125 20.421875 42.496094 44.269531 42.496094h199.285157c23.847656 0 43.292968-18.667969 44.269531-42.496094l18.550781-454.132812c.164062-4.019532-1.3125-7.925782-4.097656-10.832032zm-43.964844 463.753907c-.324219 7.945312-6.8125 14.167969-14.757812 14.167969h-199.285157c-7.945312 0-14.433593-6.222657-14.761719-14.167969l-12.316406-301.527344c2.5 1.21875 4.964844 2.519531 7.492188 3.847656 14.671875 7.71875 31.3125 16.464844 63.046875 16.464844s48.375-8.746094 63.054687-16.464844c13.339844-7.019531 24.859375-13.074219 49.300782-13.074219 24.445312 0 35.964843 6.054688 49.308593 13.074219 6.203125 3.269531 12.769531 6.714844 20.6875 9.609375zm4.828125-323.832031c-14.683594-7.71875-31.3125-16.460938-63.054687-16.460938-31.734376 0-48.367188 8.742188-63.046876 16.460938-13.339843 7.023437-24.863281 13.078124-49.308593 13.078124-24.4375 0-35.957031-6.054687-49.300781-13.078124-6.695313-3.523438-13.804688-7.253907-22.566407-10.269532l-4.273437-104.652344h264.644531l-4.863281 119.136719c-2.757813-1.339843-5.457032-2.753906-8.230469-4.214843zm0 0"/><path d="m215.378906 303.023438c-.03125-.03125-.066406-.0625-.097656-.09375-.195312-.21875-.378906-.445313-.589844-.652344-.210937-.210938-.433594-.398438-.65625-.59375-.03125-.03125-.0625-.0625-.097656-.097656-.007812-.019532-.019531-.027344-.027344-.027344-13.3125-12.9375-31.449218-20.914063-51.4375-20.914063-40.714844 0-73.84375 33.132813-73.84375 73.847657 0 19.988281 7.972656 38.132812 20.910156 51.433593.011719.011719.011719.019531.03125.03125.019532.019531.039063.039063.058594.058594.207032.234375.40625.472656.628906.695313.222657.222656.460938.421874.691407.625.019531.019531.039062.039062.058593.058593.007813.011719.019532.019531.027344.03125 13.3125 12.9375 31.449219 20.910157 51.4375 20.910157 40.714844 0 73.847656-33.121094 73.847656-73.84375 0-19.980469-7.976562-38.136719-20.914062-51.4375-.007812-.007813-.007812-.019532-.027344-.03125zm-52.90625 7.160156c6.835938 0 13.3125 1.554687 19.09375 4.332031l-59.066406 59.066406c-2.777344-5.789062-4.332031-12.257812-4.332031-19.089843 0-24.429688 19.878906-44.308594 44.304687-44.308594zm0 88.613281c-6.832031 0-13.308594-1.554687-19.085937-4.328125l59.066406-59.066406c2.773437 5.777344 4.328125 12.257812 4.328125 19.089844 0 24.4375-19.878906 44.304687-44.308594 44.304687zm0 0"/></svg>