<svg viewBox="0 -22 512.00001 512" xmlns="http://www.w3.org/2000/svg"><path d="m238.65625 231.808594c-13.5625-13.566406-28.785156-21.3125-44.023438-22.402344-10.015624-.71875-19.714843 1.484375-28.332031 6.285156l-12.003906-12.003906c-5.824219-5.824219-15.265625-5.824219-21.089844 0s-5.824219 15.265625 0 21.089844l12.007813 12.003906c-4.800782 8.617188-7.007813 18.316406-6.289063 28.332031 1.09375 15.234375 8.839844 30.457031 22.402344 44.019531 12.390625 12.394532 30.496094 19.164063 53.816406 20.121094 1.886719.078125 3.730469.113282 5.515625.113282 13.597656 0 23.898438-1.988282 24.386719-2.082032 5.941406-1.171875 10.589844-5.816406 11.757813-11.761718.105468-.550782 2.640624-13.664063 1.972656-29.898438-.960938-23.320312-7.730469-41.425781-20.121094-53.816406zm-9.835938 67.480468c-14.042968.941407-35.410156-.25-46.402343-11.242187-8.421875-8.421875-13.171875-17.085937-13.742188-25.066406-.460937-6.433594 1.796875-12.1875 6.710938-17.105469.003906 0 .003906 0 .003906-.003906h.003906c4.5-4.5 9.703125-6.773438 15.484375-6.773438.535156 0 1.078125.019532 1.621094.058594 7.980469.570312 16.648438 5.320312 25.066406 13.738281 11.03125 11.035157 12.238282 32.207031 11.253906 46.394531zm0 0"/><path d="m437.683594 159.550781h-49.957032v-5.46875c0-8.238281-6.675781-14.914062-14.910156-14.914062h-357.902344c-8.238281 0-14.914062 6.675781-14.914062 14.914062v99.417969c0 50.941406 24.855469 96.183594 63.070312 124.253906h-48.15625c-8.238281 0-14.914062 6.675782-14.914062 14.914063v29.855469c0 24.667968 20.070312 44.738281 44.738281 44.738281h298.253907c24.667968 0 44.734374-20.070313 44.734374-44.738281v-29.855469c0-8.238281-6.675781-14.914063-14.910156-14.914063h-48.15625c23.773438-17.464844 42.375-41.578125 53.035156-69.574218h59.988282c40.980468 0 74.316406-33.339844 74.316406-74.316407 0-40.976562-33.335938-74.3125-74.316406-74.3125zm-79.78125 248.027344v14.945313c0 8.222656-6.6875 14.914062-14.910156 14.914062h-298.253907c-8.222656 0-14.914062-6.691406-14.914062-14.914062v-14.945313zm-123.007813-29.824219h-82.058593c-67.945313-.679687-123.011719-56.152344-123.011719-124.253906v-84.507812h328.078125v84.507812c0 68.101562-55.066406 123.574219-123.007813 124.253906zm202.789063-99.402344h-51.96875c1.316406-8.09375 2.011718-16.390624 2.011718-24.851562v-64.125h49.957032c24.53125 0 44.492187 19.957031 44.492187 44.488281s-19.960937 44.488281-44.492187 44.488281zm0 0"/><path d="m109.753906 94.445312c0 8.238282 6.675782 14.914063 14.910156 14.914063 8.238282 0 14.914063-6.675781 14.914063-14.914063 0-13.460937-3.78125-21.027343-6.542969-26.550781-2.121094-4.238281-3.398437-6.792969-3.398437-13.214843 0-6.421876 1.277343-8.976563 3.398437-13.214844 2.761719-5.523438 6.542969-13.089844 6.542969-26.550782 0-8.238281-6.675781-14.914062-14.914063-14.914062-8.234374 0-14.910156 6.675781-14.910156 14.914062 0 6.421876-1.28125 8.976563-3.398437 13.214844-2.761719 5.523438-6.542969 13.089844-6.542969 26.550782 0 13.460937 3.78125 21.027343 6.542969 26.550781 2.117187 4.238281 3.398437 6.792969 3.398437 13.214843zm0 0"/><path d="m188.894531 94.445312c0 8.238282 6.675781 14.914063 14.910157 14.914063 8.238281 0 14.914062-6.675781 14.914062-14.914063 0-13.460937-3.78125-21.027343-6.546875-26.550781-2.117187-4.238281-3.394531-6.792969-3.394531-13.214843 0-6.421876 1.277344-8.976563 3.394531-13.214844 2.765625-5.523438 6.546875-13.089844 6.546875-26.550782 0-8.238281-6.675781-14.914062-14.914062-14.914062-8.234376 0-14.910157 6.675781-14.910157 14.914062 0 6.421876-1.28125 8.976563-3.398437 13.214844-2.761719 5.523438-6.542969 13.089844-6.542969 26.550782 0 13.460937 3.78125 21.027343 6.542969 26.550781 2.117187 4.238281 3.398437 6.792969 3.398437 13.214843zm0 0"/><path d="m268.035156 94.445312c0 8.238282 6.675782 14.914063 14.910156 14.914063 8.238282 0 14.914063-6.675781 14.914063-14.914063 0-13.460937-3.785156-21.027343-6.546875-26.550781-2.117188-4.238281-3.394531-6.792969-3.394531-13.214843 0-6.421876 1.277343-8.976563 3.394531-13.214844 2.761719-5.523438 6.546875-13.089844 6.546875-26.550782 0-8.238281-6.675781-14.914062-14.914063-14.914062-8.234374 0-14.910156 6.675781-14.910156 14.914062 0 6.421876-1.28125 8.976563-3.398437 13.214844-2.761719 5.523438-6.546875 13.089844-6.546875 26.550782 0 13.460937 3.785156 21.027343 6.546875 26.550781 2.117187 4.238281 3.398437 6.792969 3.398437 13.214843zm0 0"/></svg>