<svg viewBox="-143 0 512 512" xmlns="http://www.w3.org/2000/svg"><path d="m226.460938 113.230469c0-62.433594-50.792969-113.230469-113.230469-113.230469-62.433594 0-113.230469 50.796875-113.230469 113.230469v23.675781c0 30.246094 11.777344 58.679688 33.164062 80.066406l25.914063 25.914063v52.105469c-.015625.601562-.007813 1.207031.054687 1.8125l17.792969 182.261718c1.832031 18.777344 17.441407 32.933594 36.304688 32.933594s34.472656-14.15625 36.304687-32.933594l17.792969-182.261718c.058594-.601563.070313-1.199219.054687-1.796876v-52.578124l25.578126-25.363282c21.289062-21.109375 33.5-50.417968 33.5-80.402344zm-88.613282 167.371093h-49.230468v-29.539062h49.230468zm-24.617187 201.859376c-3.589844 0-6.558594-2.691407-6.90625-6.265626l-16.210938-166.042968h46.234375l-16.210937 166.042968c-.347657 3.574219-3.316407 6.265626-6.90625 6.265626zm83.691406-345.796876c0 22.164063-9.023437 43.824219-24.757813 59.425782h-.003906l-25.640625 25.433594h-67.03125l-25.4375-25.4375c-15.808593-15.808594-24.511719-36.824219-24.511719-59.179688v-23.675781c0-46.148438 37.542969-83.691407 83.691407-83.691407 46.148437 0 83.691406 37.542969 83.691406 83.691407zm0 0"/></svg>