<svg viewBox="0 -22 512 511" xmlns="http://www.w3.org/2000/svg"><path d="m467.691406 197.652344v-15c0-24.429688-19.875-44.304688-44.308594-44.304688h-10.617187c15.734375-16.746094 25.386719-39.265625 25.386719-64v-59.078125c0-5.972656-3.597656-11.359375-9.117188-13.644531-5.515625-2.285156-11.871094-1.023438-16.09375 3.203125-35.308594 35.304687-82.25 54.75-132.179687 54.75h-113.378907c-47.332031 0-86.5625 35.34375-92.695312 81.023437-17.628906 5.855469-30.378906 22.488282-30.378906 42.050782v15c-24.433594 0-44.308594 19.878906-44.308594 44.308594v181.921874c0 24.433594 19.875 44.308594 44.308594 44.308594h423.382812c24.433594 0 44.308594-19.875 44.308594-44.308594v-181.921874c0-24.429688-19.875-44.308594-44.308594-44.308594zm-300.308594-108.539063h113.378907c28.570312 0 56.441406-5.542969 82.839843-16.476562 16.082032-6.660157 31.132813-15.125 45.015626-25.289063v27c0 35.289063-28.710938 64-64 64h-239.511719c6.683593-28.195312 32.070312-49.234375 62.277343-49.234375zm-93.535156 93.539063c0-8.140625 6.625-14.769532 14.769532-14.769532h334.765624c8.144532 0 14.769532 6.628907 14.769532 14.769532v15h-364.304688zm408.613282 241.230468c0 8.144532-6.625 14.769532-14.769532 14.769532h-423.382812c-8.144532 0-14.769532-6.625-14.769532-14.769532v-181.921874c0-8.144532 6.625-14.769532 14.769532-14.769532h423.382812c8.144532 0 14.769532 6.625 14.769532 14.769532zm0 0"/><path d="m384 249.230469h-256c-24.429688 0-44.308594 19.875-44.308594 44.308593v78.769532c0 24.429687 19.878906 44.304687 44.308594 44.304687h256c24.429688 0 44.308594-19.875 44.308594-44.304687v-78.769532c0-24.433593-19.878906-44.308593-44.308594-44.308593zm14.769531 123.078125c0 8.140625-6.625 14.769531-14.769531 14.769531h-256c-8.144531 0-14.769531-6.628906-14.769531-14.769531v-78.769532c0-8.144531 6.625-14.769531 14.769531-14.769531h256c8.144531 0 14.769531 6.625 14.769531 14.769531zm0 0"/></svg>