<svg viewBox="-103 0 512 512" xmlns="http://www.w3.org/2000/svg"><path d="m231.382812 0h-157.535156c-40.71875 0-73.847656 33.128906-73.847656 73.847656v226.738282c0 13.691406 6.484375 26.832031 17.347656 35.160156l39.839844 30.550781c2.578125 1.976563 5.738281 3.050781 8.988281 3.050781h42.132813v4.914063c0 19.253906 12.347656 35.671875 29.539062 41.765625v81.203125c0 8.15625 6.609375 14.769531 14.769532 14.769531 8.15625 0 14.765624-6.613281 14.765624-14.769531v-81.203125c17.191407-6.09375 29.539063-22.511719 29.539063-41.765625v-4.914063h41.5625c3.21875 0 6.355469-1.054687 8.921875-3.003906l40.289062-30.550781c10.980469-8.328125 17.535157-21.523438 17.535157-35.304688v-226.640625c0-40.71875-33.128907-73.847656-73.847657-73.847656zm44.308594 300.488281c0 4.59375-2.183594 8.992188-5.84375 11.769531l-36.332031 27.550782h-51.363281c-8.15625 0-14.769532 6.613281-14.769532 14.769531v19.683594c0 8.144531-6.625 14.769531-14.765624 14.769531-8.144532 0-14.769532-6.625-14.769532-14.769531v-19.683594c0-8.15625-6.613281-14.769531-14.769531-14.769531h-51.890625l-35.867188-27.5c-3.621093-2.777344-5.78125-7.160156-5.78125-11.722656v-226.738282c0-24.433594 19.875-44.308594 44.308594-44.308594h157.535156c24.433594 0 44.308594 19.875 44.308594 44.308594zm0 0"/><path d="m231.382812 182.152344h-157.535156c-8.15625 0-14.769531 6.613281-14.769531 14.769531v79.855469c0 10.347656 4.902344 20.28125 13.113281 26.578125 5.8125 4.457031 13.050782 6.914062 20.378906 6.914062h119.75c7.261719 0 14.449219-2.417969 20.214844-6.789062l.363282-.277344c8.300781-6.292969 13.253906-16.269531 13.253906-26.683594v-79.597656c0-8.15625-6.609375-14.769531-14.769532-14.769531zm-14.765624 94.367187c0 1.230469-.585938 2.40625-1.546876 3.132813l-.359374.273437c-.683594.519531-1.535157.804688-2.390626.804688h-119.75c-.867187 0-1.71875-.289063-2.40625-.816407-.96875-.742187-1.546874-1.914062-1.546874-3.136718v-65.085938h128zm0 0"/><path d="m231.382812 64h-157.535156c-8.15625 0-14.769531 6.613281-14.769531 14.769531s6.613281 14.769531 14.769531 14.769531h157.535156c8.160157 0 14.769532-6.613281 14.769532-14.769531s-6.609375-14.769531-14.769532-14.769531zm0 0"/><path d="m192 152.617188c8.15625 0 14.769531-6.613282 14.769531-14.769532s-6.613281-14.769531-14.769531-14.769531h-78.769531c-8.15625 0-14.769531 6.613281-14.769531 14.769531s6.613281 14.769532 14.769531 14.769532zm0 0"/></svg>