<svg viewBox="-143 0 512 512" xmlns="http://www.w3.org/2000/svg"><path d="m211.691406 0h-196.921875c-8.15625 0-14.769531 6.613281-14.769531 14.769531v103.382813c0 8.15625 6.613281 14.769531 14.769531 14.769531h4.921875v285.539063c0 51.578124 41.960938 93.539062 93.539063 93.539062s93.539062-41.960938 93.539062-93.539062v-285.539063h4.921875c8.15625 0 14.769532-6.613281 14.769532-14.769531v-103.382813c0-8.15625-6.613282-14.769531-14.769532-14.769531zm-182.152344 29.539062h19.699219v29.539063c0 8.15625 6.613281 14.769531 14.769531 14.769531s14.769532-6.613281 14.769532-14.769531v-29.539063h19.683594v29.539063c0 8.15625 6.613281 14.769531 14.769531 14.769531s14.769531-6.613281 14.769531-14.769531v-29.539063h19.683594v29.539063c0 8.15625 6.613281 14.769531 14.769531 14.769531s14.769531-6.613281 14.769531-14.769531v-29.539063h19.699219v73.84375h-167.382813zm147.691407 388.921876c0 35.289062-28.710938 64-64 64-35.289063 0-64-28.710938-64-64v-49.230469h24.617187c8.15625 0 14.769532-6.613281 14.769532-14.769531s-6.613282-14.769532-14.769532-14.769532h-24.617187v-29.539062h24.617187c8.15625 0 14.769532-6.609375 14.769532-14.769532 0-8.15625-6.613282-14.765624-14.769532-14.765624h-24.617187v-29.539063h24.617187c8.15625 0 14.769532-6.613281 14.769532-14.769531s-6.613282-14.769532-14.769532-14.769532h-24.617187v-29.539062h24.617187c8.15625 0 14.769532-6.613281 14.769532-14.769531s-6.613282-14.769531-14.769532-14.769531h-24.617187v-29.539063h128zm0 0"/></svg>