<svg viewBox="0 -54 512 512" xmlns="http://www.w3.org/2000/svg"><path d="m467.691406 98.460938h-78.769531v-24.613282c0-40.71875-33.125-73.847656-73.84375-73.847656h-241.230469c-40.71875 0-73.847656 33.128906-73.847656 73.847656v285.535156c0 24.433594 19.875 44.308594 44.308594 44.308594h423.382812c24.433594 0 44.308594-19.875 44.308594-44.308594v-216.613281c0-24.429687-19.875-44.308593-44.308594-44.308593zm-438.152344-24.613282c0-24.433594 19.875-44.308594 44.308594-44.308594h241.230469c24.429687 0 44.304687 19.875 44.304687 44.308594v24.613282h-329.84375zm438.152344 300.304688h-423.382812c-8.144532 0-14.769532-6.625-14.769532-14.769532v-24.613281h49.230469c8.15625 0 14.769531-6.613281 14.769531-14.769531s-6.613281-14.769531-14.769531-14.769531h-49.230469v-39.382813h49.230469c8.15625 0 14.769531-6.613281 14.769531-14.769531s-6.613281-14.769531-14.769531-14.769531h-49.230469v-39.386719h49.230469c8.15625 0 14.769531-6.613281 14.769531-14.769531s-6.613281-14.769532-14.769531-14.769532h-49.230469v-39.382812h438.152344c8.144532 0 14.769532 6.625 14.769532 14.769531v24.613281h-49.230469c-8.15625 0-14.769531 6.613282-14.769531 14.769532s6.613281 14.769531 14.769531 14.769531h49.230469v39.386719h-49.230469c-8.15625 0-14.769531 6.613281-14.769531 14.769531s6.613281 14.769531 14.769531 14.769531h49.230469v39.382813h-49.230469c-8.15625 0-14.769531 6.613281-14.769531 14.769531s6.613281 14.769531 14.769531 14.769531h49.230469v24.613281c0 8.144532-6.625 14.769532-14.769532 14.769532zm0 0"/><path d="m256 49.230469h-118.152344c-8.15625 0-14.769531 6.613281-14.769531 14.769531s6.613281 14.769531 14.769531 14.769531h118.152344c8.15625 0 14.769531-6.613281 14.769531-14.769531s-6.613281-14.769531-14.769531-14.769531zm0 0"/></svg>