<svg viewBox="-4 0 512 512" xmlns="http://www.w3.org/2000/svg"><path d="m73.847656 0c-40.71875 0-73.847656 33.128906-73.847656 73.847656v9.976563c0 19.714843 7.675781 38.253906 21.617188 52.203125l7.914062 7.917968v224.109376l-7.914062 7.921874c-13.941407 13.945313-21.617188 32.484376-21.617188 52.199219v9.976563c0 40.71875 33.128906 73.847656 73.847656 73.847656s73.84375-33.128906 73.84375-73.847656v-9.976563c0-19.714843-7.675781-38.253906-21.613281-52.203125l-7.917969-7.917968v-224.109376l7.917969-7.921874c13.9375-13.945313 21.613281-32.484376 21.613281-52.203126v-9.972656c0-40.71875-33.125-73.847656-73.84375-73.847656zm-44.308594 73.847656c0-24.433594 19.875-44.308594 44.308594-44.308594 24.429688 0 44.304688 19.875 44.304688 44.308594v9.976563c0 11.828125-4.605469 22.953125-12.96875 31.320312l-7.925782 7.933594h-46.824218l-7.925782-7.933594c-8.363281-8.367187-12.96875-19.492187-12.96875-31.320312zm29.53125 78.769532h29.554688v206.765624h-29.554688zm59.082032 285.535156c0 24.433594-19.875 44.308594-44.304688 44.308594-24.433594 0-44.308594-19.875-44.308594-44.308594v-9.976563c0-11.828125 4.605469-22.953125 12.96875-31.320312l7.925782-7.933594h46.824218l7.925782 7.933594c8.363281 8.367187 12.96875 19.492187 12.96875 31.320312zm0 0"/><path d="m251.570312 0c-40.71875 0-73.847656 33.128906-73.847656 73.847656v9.976563c0 19.714843 7.675782 38.253906 21.617188 52.203125l7.914062 7.917968v224.109376l-7.914062 7.921874c-13.941406 13.945313-21.617188 32.484376-21.617188 52.199219v9.976563c0 40.71875 33.128906 73.847656 73.847656 73.847656s73.84375-33.128906 73.84375-73.847656v-9.976563c0-19.714843-7.675781-38.253906-21.613281-52.203125l-7.914062-7.917968v-224.109376l7.914062-7.917968c13.9375-13.949219 21.613281-32.488282 21.613281-52.203125v-9.976563c0-40.71875-33.125-73.847656-73.84375-73.847656zm-44.308593 73.847656c0-24.433594 19.875-44.308594 44.308593-44.308594 24.429688 0 44.304688 19.875 44.304688 44.308594v9.976563c0 11.828125-4.605469 22.953125-12.96875 31.320312l-7.925781 7.933594h-46.824219l-7.925781-7.933594c-8.363281-8.367187-12.96875-19.492187-12.96875-31.320312zm29.53125 78.769532h29.554687v206.765624h-29.554687zm59.082031 285.535156c0 24.433594-19.875 44.308594-44.304688 44.308594-24.433593 0-44.308593-19.875-44.308593-44.308594v-9.976563c0-11.828125 4.605469-22.953125 12.96875-31.320312l7.925781-7.933594h46.824219l7.925781 7.933594c8.363281 8.367187 12.96875 19.492187 12.96875 31.320312zm0 0"/><path d="m481.523438 136.027344c13.9375-13.949219 21.613281-32.488282 21.613281-52.203125v-9.976563c0-40.71875-33.125-73.847656-73.84375-73.847656s-73.847657 33.128906-73.847657 73.847656v9.976563c0 19.714843 7.675782 38.253906 21.617188 52.203125l7.914062 7.917968v224.109376l-7.914062 7.917968c-13.941406 13.949219-21.617188 32.488282-21.617188 52.203125v9.976563c0 40.71875 33.128907 73.847656 73.847657 73.847656s73.84375-33.128906 73.84375-73.847656v-9.976563c0-19.714843-7.675781-38.253906-21.613281-52.203125l-7.914063-7.917968v-224.109376zm-67.007813 16.589844h29.554687v206.765624h-29.554687zm-29.53125-78.769532c0-24.433594 19.875-44.308594 44.308594-44.308594 24.429687 0 44.308593 19.875 44.308593 44.308594v9.976563c0 11.828125-4.609374 22.953125-12.972656 31.320312l-7.925781 7.933594h-46.820313l-7.929687-7.933594c-8.363281-8.367187-12.96875-19.492187-12.96875-31.320312zm88.617187 364.304688c0 24.433594-19.878906 44.308594-44.308593 44.308594-24.433594 0-44.308594-19.875-44.308594-44.308594v-9.976563c0-11.828125 4.605469-22.953125 12.96875-31.320312l7.929687-7.933594h46.820313l7.929687 7.933594c8.363282 8.367187 12.96875 19.492187 12.96875 31.320312zm0 0"/></svg>