<svg viewBox="-123 0 512 512" xmlns="http://www.w3.org/2000/svg"><path d="m261.910156 226.265625c-2.796875-3.015625-6.726562-4.726563-10.832031-4.726563h-236.308594c-4.105469 0-8.03125 1.710938-10.828125 4.726563-2.796875 3.011719-4.207031 7.058594-3.8984372 11.15625l17.6406252 233.609375c1.746094 22.96875 21.152344 40.96875 44.191406 40.96875h142.097656c23.042969 0 42.449219-18 44.191406-40.96875l17.644532-233.609375c.304687-4.097656-1.101563-8.144531-3.898438-11.15625zm-26.761718 24.8125-4.765626 63.101563c-11.039062-4.980469-24.765624-8.949219-44.949218-8.949219-30.117188 0-45.863282 8.851562-59.753906 16.667969-12.28125 6.902343-22.882813 12.871093-45.273438 12.871093-21.800781 0-32.425781-5.660156-44.320312-12.328125l-5.382813-71.363281zm-16.445313 217.726563c-.578125 7.660156-7.046875 13.65625-14.730469 13.65625h-142.097656c-7.679688 0-14.148438-5.996094-14.730469-13.65625l-8.46875-112.070313c10.476563 4.3125 23.464844 7.574219 41.730469 7.574219 30.128906 0 45.871094-8.851563 59.753906-16.671875 12.28125-6.902344 22.882813-12.867188 45.273438-12.867188 20.707031 0 31.339844 5.109375 42.535156 11.332031zm0 0"/><path d="m132.433594 172.316406c-8.15625 0-14.769532 6.613282-14.769532 14.769532s6.613282 14.769531 14.769532 14.769531h.984375c8.15625 0 14.769531-6.613281 14.769531-14.769531s-6.613281-14.769532-14.769531-14.769532zm0 0"/><path d="m102.886719 310.167969h.984375c8.15625 0 14.769531-6.609375 14.769531-14.769531 0-8.15625-6.613281-14.765626-14.769531-14.765626h-.984375c-8.15625 0-14.769531 6.609376-14.769531 14.765626 0 8.160156 6.613281 14.769531 14.769531 14.769531zm0 0"/><path d="m161.980469 290.460938h.984375c8.15625 0 14.769531-6.613282 14.769531-14.769532s-6.613281-14.769531-14.769531-14.769531h-.984375c-8.160157 0-14.769531 6.613281-14.769531 14.769531s6.609374 14.769532 14.769531 14.769532zm0 0"/><path d="m67.242188 131.367188 39.382812 19.691406c2.117188 1.054687 4.371094 1.558594 6.597656 1.558594 5.042969 0 9.925782-2.582032 12.671875-7.167969l16.875-28.121094 16.878907 28.121094c2.667968 4.449219 7.472656 7.167969 12.660156 7.167969h78.75c8.164062 0 14.769531-6.617188 14.769531-14.769532v-123.078125c0-8.152343-6.605469-14.769531-14.769531-14.769531h-157.519532c-8.152343 0-14.769531 6.617188-14.769531 14.769531v51.316407l-18.636719 46.582031c-2.847656 7.128906.234376 15.261719 7.109376 18.699219zm40.011718-56.949219c.699219-1.742188 1.054688-3.605469 1.054688-5.484375v-39.394532h19.683594v9.84375c0 8.160157 6.613281 14.769532 14.769531 14.769532s14.769531-6.609375 14.769531-14.769532v-9.84375h78.757812v93.539063h-55.621093l-25.246094-42.054687c-2.667969-4.449219-7.472656-7.167969-12.660156-7.167969-5.191407 0-9.996094 2.71875-12.664063 7.167969l-22.496094 37.496093-14.996093-7.496093zm0 0"/></svg>