<svg viewBox="-123 0 512 512.0002" xmlns="http://www.w3.org/2000/svg"><path d="m261.917969 226.253906c-2.796875-3.011718-6.722657-4.726562-10.832031-4.726562h-236.3125c-4.109376 0-8.035157 1.714844-10.832032 4.726562-2.796875 3.011719-4.207031 7.058594-3.8984372 11.15625l17.6445312 233.617188c1.742188 22.972656 21.148438 40.972656 44.191406 40.972656h142.101563c23.042969 0 42.449219-18 44.191406-40.972656l17.644531-233.617188c.308594-4.097656-1.101562-8.144531-3.898437-11.15625zm-26.761719 24.8125-4.765625 63.109375c-11.039063-4.984375-24.765625-8.953125-44.949219-8.953125-30.121094 0-45.867187 8.851563-59.757812 16.671875-12.28125 6.902344-22.882813 12.867188-45.273438 12.867188-21.800781 0-32.425781-5.660157-44.320312-12.328125l-5.386719-71.367188zm-16.445312 217.738282c-.578126 7.660156-7.046876 13.65625-14.730469 13.65625h-142.101563c-7.683594 0-14.152344-5.996094-14.730468-13.65625l-8.46875-112.074219c10.476562 4.3125 23.464843 7.570312 41.730468 7.570312 30.128906 0 45.875-8.851562 59.757813-16.667969 12.277343-6.902343 22.882812-12.871093 45.273437-12.871093 20.707032 0 31.339844 5.113281 42.535156 11.335937zm0 0"/><path d="m93.050781 172.304688c-8.15625 0-14.769531 6.613281-14.769531 14.769531s6.613281 14.769531 14.769531 14.769531h.984375c8.15625 0 14.769532-6.613281 14.769532-14.769531s-6.613282-14.769531-14.769532-14.769531zm0 0"/><path d="m171.824219 172.304688c-8.15625 0-14.769531 6.613281-14.769531 14.769531s6.613281 14.769531 14.769531 14.769531h.984375c8.15625 0 14.769531-6.613281 14.769531-14.769531s-6.613281-14.769531-14.769531-14.769531zm0 0"/><path d="m132.4375 123.0625c-8.15625 0-14.769531 6.613281-14.769531 14.769531s6.613281 14.769531 14.769531 14.769531h.984375c8.15625 0 14.769531-6.613281 14.769531-14.769531s-6.613281-14.769531-14.769531-14.769531zm0 0"/><path d="m102.890625 310.164062h.984375c8.15625 0 14.769531-6.613281 14.769531-14.769531 0-8.160156-6.613281-14.773437-14.769531-14.773437h-.984375c-8.15625 0-14.769531 6.613281-14.769531 14.773437 0 8.15625 6.613281 14.769531 14.769531 14.769531zm0 0"/><path d="m161.984375 290.453125h.984375c8.15625 0 14.769531-6.613281 14.769531-14.769531s-6.613281-14.769532-14.769531-14.769532h-.984375c-8.15625 0-14.769531 6.613282-14.769531 14.769532s6.613281 14.769531 14.769531 14.769531zm0 0"/><path d="m64.386719 138.433594c2.886719 2.886718 6.65625 4.324218 10.4375 4.324218s7.5625-1.4375 10.449219-4.324218l47.65625-47.65625 47.65625 47.65625c2.886718 2.886718 6.667968 4.324218 10.449218 4.324218 3.769532 0 7.550782-1.4375 10.4375-4.324218l43.570313-43.570313c21.160156-21.160156 21.160156-55.605469 0-76.773437l-2.214844-2.214844c-21.160156-21.160156-55.605469-21.171875-76.773437 0l-33.125 33.121094-33.125-33.121094c-21.160157-21.160156-55.601563-21.160156-76.773438 0l-2.214844 2.214844c-21.160156 21.167968-21.160156 55.613281 0 76.773437zm122.550781-101.664063c9.648438-9.652343 25.355469-9.652343 35.003906 0l2.207032 2.203125c9.648437 9.652344 9.648437 25.355469 0 35.003906l-33.113282 33.125-37.222656-37.21875zm-145.226562 2.203125 2.207031-2.203125c4.824219-4.828125 11.164062-7.238281 17.503906-7.238281 6.332031 0 12.675781 2.410156 17.5 7.238281l33.121094 33.113281-37.21875 37.21875-33.113281-33.125c-9.648438-9.648437-9.648438-25.351562 0-35.003906zm0 0"/></svg>