<svg viewBox="-123 0 512 512" xmlns="http://www.w3.org/2000/svg"><path d="m261.910156 226.265625c-2.796875-3.015625-6.726562-4.726563-10.832031-4.726563h-236.308594c-4.105469 0-8.03125 1.710938-10.828125 4.726563-2.796875 3.011719-4.207031 7.058594-3.8984372 11.15625l17.6406252 233.609375c1.746094 22.96875 21.152344 40.96875 44.191406 40.96875h142.097656c23.042969 0 42.449219-18 44.191406-40.96875l17.644532-233.609375c.304687-4.097656-1.101563-8.144531-3.898438-11.15625zm-26.761718 24.8125-4.765626 63.101563c-11.039062-4.980469-24.765624-8.949219-44.949218-8.949219-30.117188 0-45.863282 8.851562-59.753906 16.667969-12.28125 6.902343-22.882813 12.871093-45.273438 12.871093-21.800781 0-32.425781-5.660156-44.320312-12.328125l-5.382813-71.363281zm-16.445313 217.726563c-.578125 7.660156-7.046875 13.65625-14.730469 13.65625h-142.097656c-7.679688 0-14.148438-5.996094-14.730469-13.65625l-8.46875-112.070313c10.476563 4.3125 23.464844 7.574219 41.730469 7.574219 30.128906 0 45.871094-8.851563 59.753906-16.671875 12.28125-6.902344 22.882813-12.867188 45.273438-12.867188 20.707031 0 31.339844 5.109375 42.535156 11.332031zm0 0"/><path d="m73.847656 172.308594c29.863282 0 54.152344-24.292969 54.152344-54.15625v-24.613282h103.386719c8.15625 0 14.769531-6.613281 14.769531-14.769531s-6.613281-14.769531-14.769531-14.769531h-107.246094l-10.691406-34.757812c-5.386719-17.484376-21.296875-29.242188-39.601563-29.242188-18.304687 0-34.214844 11.757812-39.601562 29.242188l-13.882813 45.136718-.019531.046875c-.058594.179688-.109375.355469-.148438.53125-.046874.179688-.097656.367188-.136718.542969-.039063.175781-.078125.355469-.109375.542969-.039063.175781-.066407.363281-.097657.539062-.03125.21875-.058593.453125-.078124.679688-.03125.226562-.039063.464843-.058594.699219-.011719.277343-.019532.542968-.019532.808593v39.382813c0 29.863281 24.289063 54.15625 54.152344 54.15625zm24.617188-54.15625c0 13.578125-11.039063 24.617187-24.617188 24.617187s-24.617187-11.039062-24.617187-24.617187v-24.613282h49.234375zm-35.980469-80.214844c1.535156-5.023438 6.105469-8.398438 11.363281-8.398438 5.257813 0 9.828125 3.375 11.363282 8.398438l8.023437 26.0625h-38.773437zm0 0"/></svg>