<svg viewBox="-74 0 512 512" xmlns="http://www.w3.org/2000/svg"><path d="m316.0625 103.382812c-6.628906 0-12.953125 1.347657-18.707031 3.777344v-14.605468c0-26.605469-21.644531-48.246094-48.246094-48.246094-6.632813 0-12.953125 1.34375-18.710937 3.773437-.089844-26.527343-21.699219-48.082031-48.246094-48.082031s-48.15625 21.554688-48.246094 48.082031c-5.753906-2.429687-12.078125-3.773437-18.707031-3.773437-26.601563 0-48.246094 21.640625-48.246094 48.246094v53.988281c-5.753906-2.429688-12.078125-3.773438-18.707031-3.773438-26.601563 0-48.246094 21.640625-48.246094 48.246094v195.027344c0 7.703125 2.019531 15.308593 5.847656 22l55.210938 96.519531c2.628906 4.601562 7.519531 7.4375 12.820312 7.4375h236.242188c6.128906 0 11.617187-3.78125 13.800781-9.503906l37.476563-98.253906c1.929687-5.0625 2.910156-10.375 2.910156-15.789063v-236.824219c0-26.601562-21.644532-48.246094-48.246094-48.246094zm18.707031 285.070313c0 1.804687-.328125 3.574219-.96875 5.261719l-33.851562 88.746094h-217.503907l-50.957031-89.085938c-1.273437-2.230469-1.949219-4.765625-1.949219-7.332031v-195.027344c0-10.316406 8.390626-18.707031 18.707032-18.707031s18.707031 8.390625 18.707031 18.707031v104.367187c0 8.160157 6.613281 14.769532 14.769531 14.769532s14.769532-6.609375 14.769532-14.769532v-202.828124c0-10.316407 8.390624-18.707032 18.707031-18.707032 10.316406 0 18.707031 8.390625 18.707031 18.707032v163.445312c0 8.15625 6.613281 14.769531 14.769531 14.769531s14.769531-6.613281 14.769531-14.769531v-207.753906c0-10.316406 8.394532-18.707032 18.707032-18.707032 10.316406 0 18.710937 8.390626 18.710937 18.707032v207.753906c0 8.15625 6.609375 14.769531 14.765625 14.769531 8.160156 0 14.769532-6.613281 14.769532-14.769531v-163.445312c0-10.316407 8.394531-18.707032 18.710937-18.707032 10.3125 0 18.707031 8.390625 18.707031 18.707032v163.445312c0 8.15625 6.613282 14.769531 14.769532 14.769531s14.769531-6.613281 14.769531-14.769531v-104.371094c0-10.3125 8.390625-18.707031 18.707031-18.707031s18.707031 8.394531 18.707031 18.707031zm0 0"/></svg>