<svg viewBox="0 0 512 512" xmlns="http://www.w3.org/2000/svg"><path d="m511.960938 347.078125c0-36.648437-29.8125-66.460937-66.460938-66.460937s-66.460938 29.8125-66.460938 66.460937c0 31.570313 22.132813 58.050781 51.691407 64.785156v55.828125c0 8.144532-6.625 14.769532-14.769531 14.769532h-189.539063c-8.140625 0-14.769531-6.625-14.769531-14.769532v-33.554687c17.191406-6.097657 29.539062-22.511719 29.539062-41.765625v-18.21875c0-8.140625 6.625-14.769532 14.769532-14.769532h45.949218c14.847656 0 28.628906-7.375 36.867188-19.730468l52.511718-78.769532c2.171876-3.257812 2.964844-7.246093 2.195313-11.085937-.769531-3.84375-3.03125-7.222656-6.289063-9.394531l-18.003906-12v-139.785156c0-24.433594-18.402344-44.308594-41.023437-44.308594h-18.050781c0-24.433594-19.878907-44.308594-44.308594-44.308594-24.433594 0-44.308594 19.875-44.308594 44.308594v24.613281c0 24.433594 19.875 44.308594 44.308594 44.308594 22.765625 0 41.570312-17.261719 44.027344-39.382813h18.332031c6.226562 0 11.484375 6.761719 11.484375 14.769532v120.09375l-1.613282-1.078126c-6.789062-4.523437-15.957031-2.6875-20.484374 4.097657l-39.355469 59.039062h-162.625l-39.363281-59.039062c-4.523438-6.789063-13.691407-8.621094-20.480469-4.097657l-1.613281 1.078126v-120.09375c0-8.007813 5.257812-14.769532 11.484374-14.769532h18.332032c2.457031 22.121094 21.261718 39.382813 44.027344 39.382813 24.433593 0 44.308593-19.875 44.308593-44.308594v-24.613281c0-24.433594-19.875-44.308594-44.308593-44.308594-24.429688 0-44.308594 19.875-44.308594 44.308594h-18.050782c-22.621093 0-41.023437 19.875-41.023437 44.308594v139.785156l-18 12c-3.261719 2.171875-5.523437 5.550781-6.292969 9.394531-.765625 3.839844.023438 7.828125 2.195313 11.085937l52.511719 78.769532c8.234374 12.355468 22.019531 19.730468 36.867187 19.730468h45.949219c8.140625 0 14.769531 6.628907 14.769531 14.769532v18.21875c0 19.253906 12.347656 35.667968 29.535156 41.765625v33.554687c0 24.433594 19.878907 44.308594 44.308594 44.308594h189.539063c24.429687 0 44.308593-19.875 44.308593-44.308594v-55.828125c29.558594-6.734375 51.691407-33.214843 51.691407-64.785156zm-231.382813-278.15625c0 8.144531-6.625 14.769531-14.769531 14.769531-8.144532 0-14.769532-6.625-14.769532-14.769531v-24.613281c0-8.144532 6.625-14.769532 14.769532-14.769532 8.144531 0 14.769531 6.625 14.769531 14.769532zm-167.386719-24.613281c0-8.144532 6.625-14.769532 14.769532-14.769532 8.144531 0 14.769531 6.625 14.769531 14.769532v24.613281c0 8.144531-6.625 14.769531-14.769531 14.769531-8.144532 0-14.769532-6.625-14.769532-14.769531zm24.617188 285.539062h-45.949219c-4.949219 0-9.542969-2.460937-12.289063-6.578125l-44.320312-66.480469 24.578125-16.386718 35.550781 53.328125c2.738282 4.109375 7.351563 6.578125 12.289063 6.578125h178.433593c4.9375 0 9.550782-2.46875 12.289063-6.578125l35.550781-53.328125 24.574219 16.386718-44.316406 66.480469c-2.746094 4.117188-7.339844 6.578125-12.289063 6.578125h-45.949218c-24.433594 0-44.308594 19.875-44.308594 44.304688v18.21875c0 8.140625-6.625 14.765625-14.769532 14.765625-8.144531 0-14.769531-6.625-14.769531-14.765625v-18.21875c.003907-24.429688-19.875-44.304688-44.304687-44.304688zm307.691406 54.152344c-20.359375 0-36.921875-16.5625-36.921875-36.921875s16.5625-36.925781 36.921875-36.925781 36.921875 16.566406 36.921875 36.925781-16.5625 36.921875-36.921875 36.921875zm0 0"/></svg>