<svg viewBox="0 -103 512 512" xmlns="http://www.w3.org/2000/svg"><path d="m467.691406 39.382812h-146.496094l-26.40625-26.40625c-8.371093-8.367187-19.496093-12.976562-31.332031-12.976562h-14.914062c-11.835938 0-22.960938 4.609375-31.328125 12.976562l-26.410156 26.40625h-146.496094c-24.433594 0-44.308594 19.878907-44.308594 44.308594v78.769532c0 24.433593 19.875 44.308593 44.308594 44.308593h59.074218v28.476563c0 14.839844 7.371094 28.617187 19.71875 36.855468l38.488282 25.679688c7.304687 4.871094 15.808594 7.449219 24.589844 7.449219h139.640624c8.785157 0 17.289063-2.578125 24.589844-7.449219l38.488282-25.679688c12.347656-8.238281 19.71875-22.015624 19.71875-36.855468v-28.476563h59.074218c24.433594 0 44.308594-19.875 44.308594-44.308593v-78.769532c0-24.429687-19.875-44.308594-44.308594-44.308594zm-423.382812 137.847657c-8.144532 0-14.769532-6.625-14.769532-14.769531v-78.769532c0-8.144531 6.625-14.769531 14.769532-14.769531h59.074218v108.308594zm334.769531 58.015625c0 4.945312-2.457031 9.539062-6.574219 12.285156l-38.488281 25.679688c-2.4375 1.621093-5.269531 2.480468-8.195313 2.480468h-139.640624c-2.925782 0-5.761719-.859375-8.195313-2.480468l-38.488281-25.679688c-4.117188-2.746094-6.574219-7.339844-6.574219-12.285156v-166.324219h64c3.917969 0 7.675781-1.554687 10.445313-4.324219l30.730468-30.734375c2.789063-2.789062 6.5-4.324219 10.445313-4.324219h14.914062c3.945313 0 7.652344 1.535157 10.441407 4.324219l30.734374 30.734375c2.769532 2.769532 6.527344 4.324219 10.445313 4.324219h64zm103.382813-72.785156c0 8.144531-6.625 14.769531-14.769532 14.769531h-59.074218v-108.308594h59.074218c8.144532 0 14.769532 6.625 14.769532 14.769531zm0 0"/><path d="m334.769531 98.460938h-157.539062c-8.15625 0-14.769531 6.613281-14.769531 14.769531s6.613281 14.769531 14.769531 14.769531h157.539062c8.15625 0 14.769531-6.613281 14.769531-14.769531s-6.613281-14.769531-14.769531-14.769531zm0 0"/><path d="m334.769531 157.539062h-157.539062c-8.15625 0-14.769531 6.613282-14.769531 14.769532s6.613281 14.769531 14.769531 14.769531h157.539062c8.15625 0 14.769531-6.613281 14.769531-14.769531s-6.613281-14.769532-14.769531-14.769532zm0 0"/><path d="m295.382812 216.617188h-78.765624c-8.160157 0-14.769532 6.609374-14.769532 14.765624 0 8.160157 6.609375 14.769532 14.769532 14.769532h78.765624c8.160157 0 14.769532-6.609375 14.769532-14.769532 0-8.15625-6.609375-14.765624-14.769532-14.765624zm0 0"/></svg>