<svg viewBox="0 -34 512 512" xmlns="http://www.w3.org/2000/svg"><path d="m467.691406 118.152344h-43.308594l-33.84375-107.808594c-1.933593-6.152344-7.640624-10.34375-14.09375-10.34375h-240.890624c-6.453126 0-12.160157 4.191406-14.09375 10.34375l-33.84375 107.808594h-43.308594c-24.433594 0-44.308594 19.878906-44.308594 44.308594v236.308593c0 24.429688 19.875 44.308594 44.308594 44.308594h423.382812c24.433594 0 44.308594-19.878906 44.308594-44.308594v-236.308593c0-24.429688-19.875-44.308594-44.308594-44.308594zm-68.164062 246.410156-16.328125 48.976562h-254.398438l-16.328125-48.976562c-2.011718-6.03125-7.65625-10.101562-14.011718-10.101562h-68.921876v-147.691407h68.921876c6.355468 0 12-4.070312 14.011718-10.097656l16.328125-48.980469h254.402344l16.324219 48.980469c2.011718 6.027344 7.65625 10.097656 14.011718 10.097656h68.921876v147.691407h-68.921876c-6.355468 0-12 4.070312-14.011718 10.101562zm-225.355469-246.410156 9.273437-29.535156h145.109376l9.273437 29.535156zm308.289063 44.308594v14.769531h-58.277344l-9.84375-29.539063h53.351562c8.144532 0 14.769532 6.625 14.769532 14.769532zm-336.0625-132.921876h219.203124l27.820313 88.613282h-24.632813l-15.300781-48.730469c-1.929687-6.15625-7.636719-10.34375-14.089843-10.34375h-166.796876c-6.453124 0-12.160156 4.1875-14.089843 10.34375l-15.300781 48.730469h-24.632813zm-102.089844 118.152344h53.351562l-9.84375 29.539063h-58.277344v-14.769531c0-8.144532 6.625-14.769532 14.769532-14.769532zm-14.769532 251.078125v-14.769531h58.277344l9.84375 29.539062h-53.351562c-8.144532 0-14.769532-6.625-14.769532-14.769531zm438.152344 14.769531h-53.351562l9.84375-29.539062h58.277344v14.769531c0 8.144531-6.625 14.769531-14.769532 14.769531zm0 0"/><path d="m334.769531 236.308594h-34.460937v-34.460938c0-8.15625-6.613282-14.769531-14.769532-14.769531h-59.078124c-8.15625 0-14.769532 6.613281-14.769532 14.769531v34.460938h-34.460937c-8.15625 0-14.769531 6.613281-14.769531 14.769531v59.074219c0 8.15625 6.613281 14.769531 14.769531 14.769531h34.460937v34.460937c0 8.160157 6.613282 14.769532 14.769532 14.769532h59.078124c8.15625 0 14.769532-6.609375 14.769532-14.769532v-34.460937h34.460937c8.15625 0 14.769531-6.613281 14.769531-14.769531v-59.074219c0-8.15625-6.613281-14.769531-14.769531-14.769531zm-14.769531 59.074218h-34.460938c-8.15625 0-14.769531 6.613282-14.769531 14.769532v34.464844h-29.539062v-34.464844c0-8.15625-6.613281-14.769532-14.769531-14.769532h-34.460938v-29.535156h34.460938c8.15625 0 14.769531-6.613281 14.769531-14.769531v-34.460937h29.539062v34.460937c0 8.15625 6.613281 14.769531 14.769531 14.769531h34.460938zm0 0"/></svg>