<svg viewBox="-153 0 512 512" xmlns="http://www.w3.org/2000/svg"><path d="m182.84375 265.910156c8.917969-14.378906 13.882812-31.054687 14.074219-48.25.371093-34.019531-17.910157-65.40625-47.21875-82.203125l-10.007813-102.523437c-1.835937-18.773438-17.441406-32.933594-36.308594-32.933594-18.863281 0-34.46875 14.160156-36.304687 32.933594l-10 102.429687c-28.953125 16.523438-47.230469 47.53125-47.230469 81.253907 0 17.582031 4.96875 34.632812 14.070313 49.296874-14.195313 7.390626-23.917969 22.234376-23.917969 39.316407v162.460937c0 24.433594 19.875 44.308594 44.308594 44.308594h118.152344c24.433593 0 44.308593-19.875 44.308593-44.308594v-162.460937c0-17.085938-9.726562-31.929688-23.925781-39.320313zm-105.769531-107.621094c4.816406-2.175781 8.105469-6.761718 8.617187-12.023437l10.785156-110.460937c.351563-3.574219 3.320313-6.265626 6.90625-6.265626 3.589844 0 6.558594 2.691407 6.90625 6.265626l10.792969 110.527343c.511719 5.242188 3.777344 9.816407 8.570313 12.003907 23.199218 10.578124 38.007812 33.734374 37.726562 59-.175781 16.28125-6.621094 31.890624-17.839844 43.585937h-92.308593c-11.402344-11.878906-17.847657-27.75-17.847657-44.304687 0-25.089844 14.796876-47.980469 37.691407-58.328126zm-47.535157 193.710938h44.308594c8.140625 0 14.769532 6.625 14.769532 14.769531v39.382813c0 8.144531-6.628907 14.769531-14.769532 14.769531h-44.308594zm147.691407 115.691406c0 8.144532-6.625 14.769532-14.769531 14.769532h-118.152344c-8.144532 0-14.769532-6.625-14.769532-14.769532v-17.230468h44.308594c24.429688 0 44.304688-19.875 44.304688-44.308594v-39.382813c0-24.429687-19.875-44.308593-44.304688-44.308593h-44.308594v-17.230469c0-8.144531 6.625-14.769531 14.769532-14.769531h118.152344c8.144531 0 14.769531 6.625 14.769531 14.769531zm0 0"/></svg>