<svg viewBox="-94 0 512 512" xmlns="http://www.w3.org/2000/svg"><path d="m305.230469 150.257812v-22.257812c0-15.328125-7.828125-28.863281-19.691407-36.820312v-76.410157c0-8.15625-6.613281-14.769531-14.769531-14.769531h-78.769531c-8.15625 0-14.769531 6.613281-14.769531 14.769531v27.078125h-91.15625c-6.097657-17.191406-22.511719-29.539062-41.765625-29.539062h-29.539063c-8.15625 0-14.769531 6.613281-14.769531 14.769531v59.074219c0 8.15625 6.613281 14.769531 14.769531 14.769531h29.539063c19.253906 0 35.667968-12.347656 41.765625-29.539063h91.15625v19.796876c-11.867188 7.957031-19.691407 21.492187-19.691407 36.820312v22.257812c-11.867187 7.957032-19.691406 21.488282-19.691406 36.820313v280.613281c0 24.433594 19.875 44.308594 44.304688 44.308594h98.464844c24.429687 0 44.304687-19.875 44.304687-44.308594v-280.613281c0-15.332031-7.824219-28.863281-19.691406-36.820313zm-260.921875-78.875h-14.769532v-29.535156h14.769532c8.144531 0 14.769531 6.625 14.769531 14.769532 0 8.140624-6.625 14.765624-14.769531 14.765624zm251.074218 320h-128v-128h128zm-128-157.535156v-46.769531c0-8.144531 6.628907-14.769531 14.769532-14.769531h98.464844c8.140624 0 14.765624 6.625 14.765624 14.769531v46.769531zm19.695313-105.847656c0-8.144531 6.625-14.769531 14.769531-14.769531h59.074219c8.144531 0 14.769531 6.625 14.769531 14.769531v14.769531h-88.613281zm19.691406-98.460938h49.230469v54.152344h-49.230469zm73.847657 452.921876h-98.464844c-8.140625 0-14.769532-6.625-14.769532-14.769532v-46.769531h128v46.769531c0 8.144532-6.625 14.769532-14.765624 14.769532zm0 0"/></svg>