<svg viewBox="0 -64 512.00013 512" xmlns="http://www.w3.org/2000/svg"><path d="m480.546875 31.503906c-41.9375-41.9375-110.175781-41.9375-152.113281 0l-72.433594 72.433594-72.433594-72.433594c-20.316406-20.316406-47.328125-31.503906-76.058594-31.503906-28.730468 0-55.738281 11.1875-76.054687 31.503906-41.9375 41.9375-41.9375 110.175782 0 152.113282l83.300781 83.296874c3 3 6.929688 4.503907 10.863282 4.503907 3.929687 0 7.863281-1.503907 10.863281-4.503907l119.519531-119.515624 119.515625 119.519531c3 3 6.933594 4.5 10.867187 4.5 3.929688 0 7.863282-1.5 10.863282-4.5l83.300781-83.300781c41.9375-41.9375 41.9375-110.175782 0-152.113282zm-354.929687 202.816406-72.433594-72.433593c-29.957032-29.953125-29.957032-78.695313 0-108.652344 14.511718-14.511719 33.804687-22.5 54.324218-22.5 20.523438 0 39.816407 7.988281 54.328126 22.5l72.433593 72.433594zm333.199218-72.433593-72.433594 72.433593-108.652343-108.652343 72.433593-72.433594c29.957032-29.957031 78.699219-29.957031 108.652344 0 29.957032 29.957031 29.957032 78.695313 0 108.652344zm0 0"/><path d="m256 291.949219c-25.417969 0-46.097656 20.679687-46.097656 46.097656s20.679687 46.097656 46.097656 46.097656 46.097656-20.679687 46.097656-46.097656-20.679687-46.097656-46.097656-46.097656zm0 61.460937c-8.472656 0-15.367188-6.890625-15.367188-15.363281s6.894532-15.367187 15.367188-15.367187 15.367188 6.894531 15.367188 15.367187-6.894532 15.363281-15.367188 15.363281zm0 0"/><path d="m297.496094 240.738281h-1.023438c-8.488281 0-15.367187 6.878907-15.367187 15.363281 0 8.488282 6.878906 15.367188 15.367187 15.367188h1.023438c8.484375 0 15.363281-6.878906 15.363281-15.367188 0-8.484374-6.878906-15.363281-15.363281-15.363281zm0 0"/><path d="m256 220.242188c8.484375 0 15.367188-6.878907 15.367188-15.367188 0-8.484375-6.882813-15.363281-15.367188-15.363281h-1.023438c-8.488281 0-15.367187 6.878906-15.367187 15.363281 0 8.488281 6.878906 15.367188 15.367187 15.367188zm0 0"/><path d="m215.53125 271.46875c8.484375 0 15.363281-6.878906 15.363281-15.367188 0-8.484374-6.878906-15.363281-15.363281-15.363281h-1.027344c-8.484375 0-15.363281 6.878907-15.363281 15.363281 0 8.488282 6.878906 15.367188 15.363281 15.367188zm0 0"/></svg>