<svg viewBox="-54 0 512 512" xmlns="http://www.w3.org/2000/svg"><path d="m211.691406 123.078125h-54.152344v-93.539063h14.769532c8.15625 0 14.769531-6.613281 14.769531-14.769531s-6.613281-14.769531-14.769531-14.769531h-118.15625c-8.15625 0-14.769532 6.613281-14.769532 14.769531s6.613282 14.769531 14.769532 14.769531h14.769531v93.539063h-54.152344c-8.15625 0-14.769531 6.613281-14.769531 14.769531s6.613281 14.769532 14.769531 14.769532h24.613281v152.859374c0 15.332032 7.828126 28.859376 19.695313 36.816407v31.859375c0 19.003906 15.457031 34.464844 34.460937 34.464844h4.921876v88.613281c0 8.15625 6.613281 14.769531 14.769531 14.769531s14.769531-6.613281 14.769531-14.769531v-88.613281h4.921875c19.003906 0 34.460937-15.460938 34.460937-34.464844v-31.859375c11.867188-7.957031 19.695313-21.484375 19.695313-36.816407v-152.859374h24.613281c8.15625 0 14.769532-6.613282 14.769532-14.769532s-6.613282-14.769531-14.769532-14.769531zm-113.230468-93.539063h29.539062v93.539063h-29.539062zm39.386718 344.613282c0 2.71875-2.207031 4.925781-4.925781 4.925781h-39.382813c-2.71875 0-4.921874-2.207031-4.921874-4.925781v-24.367188h49.230468zm19.691406-68.675782c0 8.144532-6.628906 14.769532-14.769531 14.769532h-59.078125c-8.140625 0-14.769531-6.625-14.769531-14.769532v-34.707031h24.617187c8.15625 0 14.769532-6.613281 14.769532-14.769531s-6.613282-14.769531-14.769532-14.769531h-24.617187v-29.539063h24.617187c8.15625 0 14.769532-6.613281 14.769532-14.769531s-6.613282-14.769531-14.769532-14.769531h-24.617187v-29.535156h88.617187zm0 0"/><path d="m364.308594 320.277344v-10.617188c11.222656-2.28125 19.691406-12.226562 19.691406-24.121094v-39.265624c0-13.570313-11.039062-24.617188-24.617188-24.617188h-78.765624c-13.578126 0-24.617188 11.046875-24.617188 24.617188v39.265624c0 11.894532 8.46875 21.839844 19.691406 24.121094v10.617188c-22.125 2.449218-39.382812 21.265625-39.382812 44.03125v132.921875c0 8.152343 6.617187 14.769531 14.769531 14.769531h137.84375c8.152344 0 14.769531-6.617188 14.769531-14.769531v-132.921875c0-22.765625-17.257812-41.582032-39.382812-44.03125zm-78.769532-69.082032h68.921876v29.421876h-68.921876zm88.613282 231.265626h-108.304688v-49.09375c6.28125 2.75 14.109375 4.785156 24.613282 4.785156 19.238281 0 29.488281-6.832032 37.730468-12.324219 6.65625-4.433594 11.046875-7.367187 21.347656-7.367187 10.296876 0 14.691407 2.933593 21.347657 7.367187 1.050781.699219 2.136719 1.425781 3.265625 2.144531zm0-88.753907c-6.28125-2.746093-14.109375-4.785156-24.613282-4.785156-19.238281 0-29.5 6.835937-37.730468 12.328125-6.65625 4.429688-11.046875 7.367188-21.347656 7.367188-10.296876 0-14.691407-2.9375-21.347657-7.367188-1.050781-.699219-2.136719-1.425781-3.265625-2.144531v-34.796875c0-8.144532 6.625-14.769532 14.769532-14.769532h9.84375c8.152343 0 14.769531-6.617187 14.769531-14.769531v-24.617187h29.539062v24.617187c0 8.152344 6.617188 14.769531 14.769531 14.769531h9.84375c8.144532 0 14.769532 6.625 14.769532 14.769532zm0 0"/></svg>