<svg viewBox="-5 0 512 512" xmlns="http://www.w3.org/2000/svg"><path d="m487.382812 142.769531h-162.460937v-29.820312c22.125-2.457031 39.386719-21.257813 39.386719-44.027344v-24.613281c0-24.433594-19.878906-44.308594-44.308594-44.308594h-275.691406c-24.433594 0-44.308594 19.875-44.308594 44.308594v24.613281c0 22.769531 17.261719 41.570313 39.382812 44.027344v286.101562c-22.121093 2.457031-39.382812 21.257813-39.382812 44.027344v24.613281c0 24.433594 19.875 44.308594 44.308594 44.308594h275.691406c24.429688 0 44.308594-19.875 44.308594-44.308594v-24.613281c0-22.769531-17.261719-41.570313-39.386719-44.027344v-29.820312h162.460937c8.160157 0 14.769532-6.613281 14.769532-14.769531v-196.921876c0-8.15625-6.609375-14.769531-14.769532-14.769531zm-418.460937-29.539062h226.460937v29.539062h-226.460937zm-39.382813-44.308594v-24.613281c0-8.144532 6.625-14.769532 14.769532-14.769532h275.691406c8.144531 0 14.769531 6.625 14.769531 14.769532v24.613281c0 8.144531-6.625 14.769531-14.769531 14.769531h-275.691406c-8.144532 0-14.769532-6.625-14.769532-14.769531zm305.230469 374.15625v24.613281c0 8.144532-6.625 14.769532-14.769531 14.769532h-275.691406c-8.144532 0-14.769532-6.625-14.769532-14.769532v-24.613281c0-8.144531 6.625-14.769531 14.769532-14.769531h275.691406c8.144531 0 14.769531 6.625 14.769531 14.769531zm-39.386719-44.308594h-226.460937v-29.539062h226.460937zm177.234376-59.078125h-403.695313v-167.382812h403.695313zm0 0"/><path d="m153.109375 241.230469h-.984375c-8.160156 0-14.769531 6.613281-14.769531 14.769531s6.609375 14.769531 14.769531 14.769531h.984375c8.15625 0 14.765625-6.613281 14.765625-14.769531s-6.609375-14.769531-14.765625-14.769531zm0 0"/><path d="m113.722656 201.847656h-.984375c-8.15625 0-14.769531 6.609375-14.769531 14.769532 0 8.15625 6.613281 14.765624 14.769531 14.765624h.984375c8.15625 0 14.769532-6.609374 14.769532-14.765624 0-8.160157-6.613282-14.769532-14.769532-14.769532zm0 0"/><path d="m113.722656 280.617188h-.984375c-8.15625 0-14.769531 6.609374-14.769531 14.765624 0 8.160157 6.613281 14.769532 14.769531 14.769532h.984375c8.15625 0 14.769532-6.609375 14.769532-14.769532 0-8.15625-6.613282-14.765624-14.769532-14.765624zm0 0"/><path d="m231.875 241.230469h-.984375c-8.15625 0-14.765625 6.613281-14.765625 14.769531s6.609375 14.769531 14.765625 14.769531h.984375c8.160156 0 14.769531-6.613281 14.769531-14.769531s-6.609375-14.769531-14.769531-14.769531zm0 0"/><path d="m271.261719 201.847656h-.984375c-8.15625 0-14.769532 6.609375-14.769532 14.769532 0 8.15625 6.613282 14.765624 14.769532 14.765624h.984375c8.15625 0 14.769531-6.609374 14.769531-14.765624 0-8.160157-6.613281-14.769532-14.769531-14.769532zm0 0"/><path d="m271.261719 280.617188h-.984375c-8.15625 0-14.769532 6.609374-14.769532 14.765624 0 8.160157 6.613282 14.769532 14.769532 14.769532h.984375c8.15625 0 14.769531-6.609375 14.769531-14.769532 0-8.15625-6.613281-14.765624-14.769531-14.765624zm0 0"/><path d="m192.492188 201.847656h-.984376c-8.15625 0-14.769531 6.609375-14.769531 14.769532 0 8.15625 6.613281 14.765624 14.769531 14.765624h.984376c8.15625 0 14.769531-6.609374 14.769531-14.765624 0-8.160157-6.613281-14.769532-14.769531-14.769532zm0 0"/><path d="m192.492188 280.617188h-.984376c-8.15625 0-14.769531 6.609374-14.769531 14.765624 0 8.160157 6.613281 14.769532 14.769531 14.769532h.984376c8.15625 0 14.769531-6.609375 14.769531-14.769532 0-8.15625-6.613281-14.765624-14.769531-14.765624zm0 0"/><path d="m294.890625 256c0 8.15625 6.613281 14.769531 14.769531 14.769531h.984375c8.15625 0 14.769531-6.613281 14.769531-14.769531s-6.613281-14.769531-14.769531-14.769531h-.984375c-8.15625 0-14.769531 6.613281-14.769531 14.769531zm0 0"/><path d="m427.816406 231.382812h.984375c8.15625 0 14.769531-6.609374 14.769531-14.765624 0-8.160157-6.613281-14.769532-14.769531-14.769532h-.984375c-8.15625 0-14.769531 6.609375-14.769531 14.769532 0 8.15625 6.613281 14.765624 14.769531 14.765624zm0 0"/><path d="m427.816406 310.152344h.984375c8.15625 0 14.769531-6.609375 14.769531-14.769532 0-8.15625-6.613281-14.765624-14.769531-14.765624h-.984375c-8.15625 0-14.769531 6.609374-14.769531 14.765624 0 8.160157 6.613281 14.769532 14.769531 14.769532zm0 0"/><path d="m388.429688 270.769531h.984374c8.15625 0 14.769532-6.613281 14.769532-14.769531s-6.613282-14.769531-14.769532-14.769531h-.984374c-8.15625 0-14.769532 6.613281-14.769532 14.769531s6.613282 14.769531 14.769532 14.769531zm0 0"/><path d="m349.046875 231.382812h.984375c8.15625 0 14.769531-6.609374 14.769531-14.765624 0-8.160157-6.613281-14.769532-14.769531-14.769532h-.984375c-8.15625 0-14.769531 6.609375-14.769531 14.769532 0 8.15625 6.613281 14.765624 14.769531 14.765624zm0 0"/><path d="m349.046875 310.152344h.984375c8.15625 0 14.769531-6.609375 14.769531-14.769532 0-8.15625-6.613281-14.765624-14.769531-14.765624h-.984375c-8.15625 0-14.769531 6.609374-14.769531 14.765624 0 8.160157 6.613281 14.769532 14.769531 14.769532zm0 0"/></svg>