<svg viewBox="-44 0 512 512" xmlns="http://www.w3.org/2000/svg"><path d="m379.078125 398.769531h-14.769531v-251.078125c0-46.148437-37.546875-83.691406-83.691406-83.691406h-14.769532v-19.691406c0-24.433594-19.878906-44.308594-44.308594-44.308594h-19.691406c-24.433594 0-44.308594 19.875-44.308594 44.308594v19.691406h-14.769531c-46.148437 0-83.691406 37.542969-83.691406 83.691406v251.078125h-14.769531c-24.433594 0-44.308594 19.875-44.308594 44.308594v24.613281c0 24.433594 19.875 44.308594 44.308594 44.308594h334.769531c24.429687 0 44.304687-19.875 44.304687-44.308594v-24.613281c0-24.433594-19.875-44.308594-44.304687-44.308594zm-157.539063-256h-19.691406c-8.144531 0-14.769531-6.625-14.769531-14.769531v-34.460938h49.230469v34.460938c0 8.144531-6.625 14.769531-14.769532 14.769531zm-34.460937-98.460937c0-8.144532 6.625-14.769532 14.769531-14.769532h19.691406c8.144532 0 14.769532 6.625 14.769532 14.769532v19.691406h-49.230469zm-98.460937 103.382812c0-29.859375 24.292968-54.152344 54.152343-54.152344h14.769531v34.460938c0 22.765625 17.261719 41.570312 39.382813 44.027344v44.589844c0 8.15625 6.613281 14.765624 14.769531 14.765624s14.769532-6.609374 14.769532-14.765624v-44.589844c22.121093-2.457032 39.386718-21.261719 39.386718-44.027344v-34.460938h14.769532c29.859374 0 54.152343 24.292969 54.152343 54.152344v251.078125h-246.152343zm305.230468 320c0 8.144532-6.628906 14.769532-14.769531 14.769532h-334.769531c-8.144532 0-14.769532-6.625-14.769532-14.769532v-24.613281c0-8.144531 6.625-14.769531 14.769532-14.769531h334.769531c8.140625 0 14.769531 6.625 14.769531 14.769531zm0 0"/></svg>