<svg viewBox="-123 0 512 512" xmlns="http://www.w3.org/2000/svg"><path d="m245.085938 386.898438c-.277344-.328126-.5625-.652344-.867188-.960938-.308594-.308594-.632812-.589844-.960938-.867188-9.914062-9.578124-22.480468-16.421874-36.488281-19.277343v-232.871094h4.921875c8.15625 0 14.769532-6.613281 14.769532-14.769531v-103.382813c0-8.15625-6.613282-14.769531-14.769532-14.769531h-196.921875c-8.15625 0-14.769531 6.613281-14.769531 14.769531v103.382813c0 8.15625 6.613281 14.769531 14.769531 14.769531h4.921875v334.769531c0 24.433594 19.878906 44.308594 44.308594 44.308594h98.460938c4.40625 0 8.710937-.65625 12.867187-1.921875 5.363281 1.242187 10.9375 1.921875 16.671875 1.921875 40.71875 0 73.847656-33.128906 73.847656-73.847656 0-19.894532-7.925781-37.964844-20.761718-51.253906zm-93.0625 70.347656c-2.125-4.433594-3.535157-9.273438-4.074219-14.367188-.015625-.140625-.03125-.28125-.042969-.421875-.054688-.550781-.09375-1.105469-.128906-1.660156-.007813-.179687-.023438-.355469-.03125-.535156-.03125-.699219-.054688-1.402344-.054688-2.109375 0-24.429688 19.878906-44.304688 44.308594-44.304688 6.832031 0 13.304688 1.554688 19.089844 4.328125zm-122.484376-427.707032h19.699219v29.539063c0 8.15625 6.613281 14.769531 14.769531 14.769531s14.769532-6.613281 14.769532-14.769531v-29.539063h19.683594v29.539063c0 8.15625 6.613281 14.769531 14.769531 14.769531s14.769531-6.613281 14.769531-14.769531v-29.539063h19.683594v29.539063c0 8.15625 6.613281 14.769531 14.769531 14.769531s14.769531-6.613281 14.769531-14.769531v-29.539063h19.699219v73.84375h-167.382813zm19.691407 201.84375h49.230469v108.308594h-49.230469zm14.769531 251.078126c-8.144531 0-14.769531-6.625-14.769531-14.769532v-98.460937h64c8.15625 0 14.769531-6.613281 14.769531-14.769531v-137.84375c0-8.160157-6.613281-14.769532-14.769531-14.769532h-64v-68.925781h128v232.871094c-.015625 0-.03125.007812-.050781.007812-.171876.035157-.339844.082031-.515626.117188-.953124.203125-1.90625.421875-2.847656.660156-.394531.101563-.785156.214844-1.179687.324219-.714844.191406-1.421875.390625-2.125.605468-.445313.132813-.882813.277344-1.320313.421876-.648437.210937-1.292968.425781-1.933594.65625-.449218.160156-.898437.324218-1.34375.496093-.625.234375-1.242187.480469-1.855468.730469-.441406.183594-.882813.363281-1.320313.554688-.621093.269531-1.230469.550781-1.84375.832031-.414062.195312-.828125.382812-1.238281.582031-.660156.324219-1.308594.664062-1.957031 1.007812-.347657.179688-.699219.355469-1.042969.542969-.96875.53125-1.929688 1.082031-2.871094 1.65625-.199218.117188-.386718.246094-.582031.367188-.753906.46875-1.503906.945312-2.238281 1.4375-.359375.242187-.707032.492187-1.0625.738281-.5625.394531-1.125.789062-1.675782 1.195312-.382812.28125-.753906.570313-1.128906.859376-.511718.394531-1.023437.789062-1.523437 1.199218-.378907.304688-.75.613282-1.121094.925782-.488281.414062-.96875.828124-1.445313 1.253906-.363281.320312-.722656.644531-1.078124.972656-.476563.441406-.945313.890625-1.414063 1.347656-.332031.324219-.667969.644532-.996094.976563-.496093.503906-.980469 1.019531-1.464843 1.535156-.277344.296875-.558594.589844-.832032.890625-.734375.8125-1.453125 1.636719-2.152344 2.480469-.128906.160156-.253906.324219-.382812.484375-.574219.707031-1.140625 1.421875-1.691406 2.148437-.25.335938-.492188.679688-.738282 1.019531-.410156.5625-.820312 1.128907-1.214843 1.707032-.261719.382812-.515625.769531-.769531 1.160156-.363282.550781-.71875 1.101562-1.066407 1.664062-.253906.402344-.5.8125-.742187 1.222657-.332032.5625-.660156 1.132812-.980469 1.703125-.230469.414062-.460937.828125-.683594 1.246094-.316406.59375-.621093 1.195312-.921875 1.800781-.203125.40625-.410156.808593-.601562 1.21875-.320313.667969-.621094 1.34375-.917969 2.023437-.15625.355469-.320313.707032-.472656 1.0625-.433594 1.039063-.851563 2.082032-1.238281 3.140625-.035157.089844-.0625.183594-.09375.273438-.355469.976562-.691407 1.964843-1.003907 2.960937-.117187.371094-.21875.75-.332031 1.125-.214844.722656-.425781 1.445313-.617188 2.175782-.117187.4375-.222656.878906-.328124 1.316406-.167969.683594-.328126 1.367187-.476563 2.054687-.097656.464844-.191406.925781-.28125 1.394531-.132813.683594-.253906 1.371094-.367187 2.058594-.078126.46875-.152344.933594-.21875 1.402344-.105469.714844-.191407 1.429688-.277344 2.148438-.050782.453124-.105469.902343-.148438 1.355468-.078125.789063-.132812 1.582032-.183594 2.378906-.023437.386719-.058593.773438-.078124 1.160157-.054688 1.1875-.089844 2.378906-.089844 3.578125 0 1.183594.035156 2.355468.089844 3.523437.015624.300781.039062.597657.054687.898438.054687.917969.125 1.835937.210937 2.746093.023438.246094.046876.492188.074219.738282 1.417969 13.476562 6.417969 25.980468 14.21875 36.402344zm128 0c-6.832031 0-13.304688-1.554688-19.089844-4.328126l59.066406-59.070312c2.773438 5.785156 4.332032 12.257812 4.332032 19.089844 0 24.433594-19.878906 44.308594-44.308594 44.308594zm0 0"/></svg>