<svg viewBox="-103 0 512 512" xmlns="http://www.w3.org/2000/svg"><path d="m304.789062 193.390625-2.476562-9.917969c-10.089844-40.375-32.40625-76.179687-63.738281-102.867187 4.734375-5.902344 7.578125-13.386719 7.578125-21.527344v-24.617187c0-19-15.457032-34.460938-34.460938-34.460938h-118.152344c-19.003906 0-34.460937 15.460938-34.460937 34.460938v24.617187c0 8.140625 2.84375 15.625 7.578125 21.527344-31.332031 26.6875-53.652344 62.492187-63.738281 102.867187l-2.476563 9.917969c-.292968 1.167969-.441406 2.371094-.441406 3.578125v270.722656c0 24.433594 19.875 44.308594 44.308594 44.308594h216.613281c24.433594 0 44.308594-19.875 44.308594-44.308594v-270.722656c0-1.207031-.148438-2.40625-.441407-3.578125zm-216.171874-158.929687c0-2.714844 2.207031-4.921876 4.921874-4.921876h118.152344c2.714844 0 4.925782 2.207032 4.925782 4.921876v24.617187c0 2.714844-2.210938 4.921875-4.925782 4.921875h-118.152344c-2.714843 0-4.921874-2.207031-4.921874-4.921875zm187.074218 433.230468c0 8.144532-6.625 14.769532-14.769531 14.769532h-216.613281c-8.144532 0-14.769532-6.625-14.769532-14.769532v-268.902344l2.039063-8.15625c9.851563-39.4375 33.414063-73.753906 66.546875-97.09375h108.980469c33.136719 23.339844 56.695312 57.660157 66.546875 97.09375l2.039062 8.15625zm0 0"/><path d="m211.691406 211.699219h-118.152344c-24.433593 0-44.308593 19.878906-44.308593 44.308593v157.539063c0 24.429687 19.875 44.308594 44.308593 44.308594h118.152344c24.433594 0 44.308594-19.878907 44.308594-44.308594v-157.539063c0-24.433593-19.875-44.308593-44.308594-44.308593zm14.769532 201.847656c0 8.144531-6.625 14.769531-14.769532 14.769531h-118.152344c-8.144531 0-14.769531-6.625-14.769531-14.769531v-157.539063c0-8.144531 6.625-14.769531 14.769531-14.769531h118.152344c8.144532 0 14.769532 6.625 14.769532 14.769531zm0 0"/><path d="m192 260.921875h-78.769531c-8.15625 0-14.769531 6.613281-14.769531 14.769531s6.613281 14.769532 14.769531 14.769532h78.769531c8.15625 0 14.769531-6.613282 14.769531-14.769532s-6.613281-14.769531-14.769531-14.769531zm0 0"/><path d="m192 320h-78.769531c-8.15625 0-14.769531 6.613281-14.769531 14.769531s6.613281 14.769531 14.769531 14.769531h78.769531c8.15625 0 14.769531-6.613281 14.769531-14.769531s-6.613281-14.769531-14.769531-14.769531zm0 0"/><path d="m192 379.078125h-19.691406c-8.15625 0-14.769532 6.613281-14.769532 14.769531s6.613282 14.769532 14.769532 14.769532h19.691406c8.15625 0 14.769531-6.613282 14.769531-14.769532s-6.613281-14.769531-14.769531-14.769531zm0 0"/></svg>