<svg viewBox="0 0 511 511.99995" xmlns="http://www.w3.org/2000/svg"><path d="m499.726562 12.773438c-16.0625-16.066407-42.191406-17.109376-59.484374-2.378907l-104.566407 89.0625-62.300781 8.933594c-3.160156.453125-6.09375 1.917969-8.351562 4.175781l-151.957032 151.957032c-2.257812 2.257812-3.722656 5.191406-4.175781 8.351562l-8.933594 62.300781-89.0625 104.566407c-14.730469 17.292968-13.6875 43.421874 2.378907 59.484374 8.476562 8.476563 19.757812 12.773438 31.066406 12.773438 10.113281 0 20.253906-3.4375 28.417968-10.394531l104.566407-89.0625 62.300781-8.933594c3.160156-.453125 6.09375-1.917969 8.351562-4.175781l151.957032-151.957032c2.257812-2.257812 3.722656-5.191406 4.175781-8.351562l8.933594-62.300781 89.0625-104.566407c14.730469-17.292968 13.6875-43.421874-2.378907-59.484374zm-20.117187 40.324218-91.832031 107.816406c-1.808594 2.128907-2.980469 4.722657-3.375 7.484376l-8.84375 61.664062-144.996094 145-61.664062 8.839844c-2.761719.394531-5.355469 1.566406-7.484376 3.378906l-107.816406 91.828125c-5.648437 4.8125-14.183594 4.472656-19.433594-.773437-5.246093-5.25-5.585937-13.785157-.773437-19.4375l91.828125-107.8125c1.8125-2.128907 2.984375-4.722657 3.378906-7.484376l8.84375-61.664062 145-145 61.660156-8.839844c2.765626-.394531 5.355469-1.566406 7.484376-3.378906l107.816406-91.832031c5.648437-4.808594 14.183594-4.46875 19.433594.777343 5.246093 5.25 5.585937 13.785157.773437 19.433594zm0 0"/><path d="m303.058594 188.546875-114.011719 114.015625c-5.773437 5.769531-5.773437 15.121094 0 20.890625 2.882813 2.886719 6.664063 4.328125 10.445313 4.328125 3.777343 0 7.5625-1.441406 10.445312-4.328125l114.015625-114.015625c5.769531-5.765625 5.769531-15.121094 0-20.890625s-15.121094-5.769531-20.894531 0zm0 0"/></svg>