<svg viewBox="-64 0 512 512" xmlns="http://www.w3.org/2000/svg"><path d="m142.769531 182.152344h-78.769531c-8.15625 0-14.769531 6.613281-14.769531 14.769531v256c0 8.15625 6.613281 14.769531 14.769531 14.769531h78.769531c8.15625 0 14.769531-6.613281 14.769531-14.769531v-256c0-8.15625-6.613281-14.769531-14.769531-14.769531zm-14.769531 256h-49.230469v-226.460938h49.230469zm0 0"/><path d="m369.230469 123.078125c-13.574219 0-24.613281-11.042969-24.613281-24.617187v-54.152344c0-24.433594-19.878907-44.308594-44.308594-44.308594h-39.386719c-24.429687 0-44.304687 19.875-44.304687 44.308594v54.152344c0 13.574218-11.042969 24.617187-24.617188 24.617187s-24.617188-11.042969-24.617188-24.617187v-54.152344c0-24.433594-19.875-44.308594-44.304687-44.308594h-39.386719c-24.429687 0-44.308594 19.875-44.308594 44.308594v54.152344c0 13.574218-11.039062 24.617187-24.613281 24.617187-8.15625 0-14.769531 6.613281-14.769531 14.769531v329.84375c0 24.433594 19.875 44.308594 44.308594 44.308594h118.152344c11.339843 0 21.695312-4.285156 29.539062-11.316406 7.84375 7.03125 18.199219 11.316406 29.539062 11.316406h118.152344c24.433594 0 44.308594-19.875 44.308594-44.308594v-329.84375c0-8.15625-6.613281-14.769531-14.769531-14.769531zm-108.308594-93.539063h39.386719c8.144531 0 14.769531 6.625 14.769531 14.769532v9.851562h-68.925781v-9.851562c0-8.144532 6.628906-14.769532 14.769531-14.769532zm-177.230469 0h39.386719c8.140625 0 14.769531 6.625 14.769531 14.769532v9.851562h-68.925781v-9.851562c0-8.144532 6.625-14.769532 14.769531-14.769532zm78.769532 452.921876h-118.152344c-8.144532 0-14.769532-6.625-14.769532-14.769532v-317.121094c22.707032-6.445312 39.382813-27.367187 39.382813-52.109374v-14.761719h68.925781v14.761719c0 24.742187 16.675782 45.664062 39.382813 52.109374v317.121094c0 8.144532-6.625 14.769532-14.769531 14.769532zm192-14.769532c0 8.144532-6.625 14.769532-14.769532 14.769532h-118.152344c-8.144531 0-14.769531-6.625-14.769531-14.769532v-317.121094c22.707031-6.445312 39.382813-27.367187 39.382813-52.109374v-14.761719h68.925781v14.761719c0 24.742187 16.675781 45.664062 39.382813 52.109374zm0 0"/><path d="m320 182.152344h-78.769531c-8.15625 0-14.769531 6.613281-14.769531 14.769531v256c0 8.15625 6.613281 14.769531 14.769531 14.769531h78.769531c8.15625 0 14.769531-6.613281 14.769531-14.769531v-256c0-8.15625-6.613281-14.769531-14.769531-14.769531zm-14.769531 256h-49.230469v-226.460938h49.230469zm0 0"/></svg>