<svg viewBox="1 -44 511.99903 511" xmlns="http://www.w3.org/2000/svg"><path d="m456.089844 71.769531c-26.769532-36.917969-53.132813-65.363281-54.238282-66.558593-2.796874-3.003907-6.714843-4.710938-10.816406-4.710938-4.105468 0-8.023437 1.707031-10.816406 4.710938-1.796875 1.933593-39.65625 42.847656-70.457031 90.066406-23.144531-29.3125-41.929688-49.589844-42.945313-50.683594-2.792968-3.003906-6.710937-4.710938-10.816406-4.710938-4.101562 0-8.023438 1.707032-10.816406 4.710938-1.015625 1.09375-19.800782 21.371094-42.945313 50.683594-30.796875-47.21875-68.660156-88.132813-70.457031-90.066406-2.792969-3.003907-6.710938-4.710938-10.816406-4.710938-4.101563 0-8.019532 1.707031-10.816406 4.710938-1.105469 1.195312-27.46875 29.640624-54.238282 66.558593-37.097656 51.164063-55.910156 92.269531-55.910156 122.175781 0 72.484376 54.265625 131.457032 120.964844 131.457032.855468 0 1.710937-.027344 2.566406-.046875 20.730469 57.601562 72.292969 98.5 132.46875 98.5s111.738281-40.898438 132.46875-98.5c.855469.019531 1.710938.046875 2.5625.046875 66.703125 0 120.96875-58.972656 120.96875-131.457032 0-29.90625-18.8125-71.011718-55.910156-122.175781zm-340.191406 223.9375c-48.066407-2.9375-86.363282-47.457031-86.363282-101.761719 0-42.765624 58.472656-118.742187 91.382813-156.511718 14.636719 16.875 41.363281 49.195312 62.238281 82.875-.277344.375-.542969.746094-.816406 1.121094-.671875.917968-1.34375 1.832031-2.015625 2.757812-.128907.175781-.25.351562-.378907.53125-1.15625 1.597656-2.296874 3.179688-3.421874 4.757812-.128907.183594-.257813.367188-.386719.546876-36.035157 50.613281-56.589844 92.585937-61.289063 125.171874-.015625.097657-.027344.191407-.039062.292969-.15625 1.097657-.300782 2.1875-.417969 3.261719-.03125.296875-.054687.585938-.082031.882812-.089844.875-.179688 1.753907-.246094 2.617188-.042969.546875-.0625 1.085938-.097656 1.625-.035156.605469-.078125 1.214844-.101563 1.8125-.046875 1.136719-.070312 2.261719-.070312 3.375 0 1.234375.019531 2.46875.046875 3.703125.007812.40625.023437.8125.035156 1.21875.023438.828125.050781 1.652344.085938 2.480469.019531.472656.046874.941406.070312 1.414062.039062.769532.085938 1.535156.132812 2.300782.035157.476562.066407.953124.101563 1.429687.058594.785156.121094 1.570313.191406 2.355469.039063.433594.074219.867187.117188 1.300781.089843.941406.191406 1.882813.296875 2.820313.027344.261718.054687.527343.085937.789062.144531 1.246094.304688 2.488281.480469 3.726562 0 .007813 0 .015626.003906.023438.140625 1.027344.292969 2.058594.457032 3.082031zm140.101562 98.613281c-51.082031 0-94.328125-37.996093-108.089844-89.898437-.171875-.652344-.34375-1.304687-.503906-1.960937-.148438-.597657-.296875-1.195313-.441406-1.796876-.269532-1.148437-.527344-2.300781-.765625-3.457031-.089844-.441406-.171875-.886719-.261719-1.332031-.179688-.925781-.355469-1.859375-.519531-2.792969-.078125-.441406-.15625-.882812-.230469-1.324219-.210938-1.28125-.40625-2.566406-.582031-3.851562-.039063-.285156-.070313-.574219-.109375-.859375-.144532-1.113281-.273438-2.226563-.390625-3.34375-.039063-.367187-.078125-.734375-.113281-1.101563-.132813-1.355468-.25-2.714843-.339844-4.074218-.011719-.171875-.019532-.339844-.03125-.511719-.078125-1.226563-.136719-2.457031-.183594-3.6875-.015625-.363281-.027344-.730469-.039062-1.09375-.039063-1.386719-.066407-2.777344-.066407-4.167969v-.003906c0-.910156.023438-1.84375.070313-2.789062.003906-.140626.015625-.285157.023437-.429688.046875-.863281.105469-1.734375.191407-2.625.003906-.035156.007812-.066406.007812-.101562 1.535156-16.132813 9.042969-36.832032 21.972656-60.984376.289063-.535156.574219-1.074218.871094-1.609374.222656-.414063.449219-.828126.675781-1.246094 24.921875-45.371094 63.832031-94.105469 88.855469-122.574219 25.019531 28.460937 63.914062 77.175781 88.835938 122.539063.238281.4375.480468.875.71875 1.308593.28125.523438.5625 1.042969.84375 1.5625 12.929687 24.160157 20.445312 44.863281 21.976562 61 .003906.035157.007812.070313.011719.105469.082031.890625.140625 1.757812.1875 2.621094.007812.144531.019531.289062.027343.433594.042969.945312.070313 1.875.070313 2.789062 0 1.390625-.03125 2.785156-.070313 4.171875-.011718.363281-.023437.726563-.035156 1.09375-.046875 1.230469-.109375 2.464844-.1875 3.691406-.007812.167969-.015625.335938-.027344.503907-.089843 1.363281-.207031 2.722656-.339843 4.078124-.035157.367188-.074219.734376-.113281 1.097657-.117188 1.121093-.25 2.238281-.394532 3.351562-.035156.285157-.066406.570313-.105468.851563-.175782 1.289062-.375 2.574218-.585938 3.855468-.074219.441407-.148438.878907-.226562 1.316407-.164063.941406-.339844 1.878906-.523438 2.816406-.085938.433594-.167969.875-.257812 1.308594-.242188 1.160156-.5 2.320312-.773438 3.476562-.136719.589844-.28125 1.171875-.425781 1.757813-.171875.679687-.347657 1.355468-.523438 2.03125-13.777343 51.878906-57.011719 89.855468-108.082031 89.855468zm140.101562-98.613281c.164063-1.023437.316407-2.054687.460938-3.082031 0-.007812 0-.015625.003906-.023438.171875-1.242187.332032-2.484374.480469-3.726562.03125-.265625.054687-.53125.085937-.796875.105469-.9375.203126-1.871094.296876-2.8125.039062-.433594.078124-.871094.113281-1.308594.070312-.78125.136719-1.5625.195312-2.347656.035157-.476563.066407-.953125.097657-1.433594.050781-.761719.09375-1.527343.132812-2.292969.027344-.472656.050781-.949218.070312-1.421874.035157-.824219.0625-1.648438.085938-2.472657.011719-.410156.027344-.816406.039062-1.226562.027344-1.230469.042969-2.464844.042969-3.699219 0-1.113281-.023437-2.238281-.066406-3.375-.023437-.613281-.070313-1.242188-.109375-1.863281-.03125-.523438-.050781-1.042969-.09375-1.574219-.066406-.878906-.15625-1.773438-.246094-2.667969-.03125-.277343-.050781-.550781-.078125-.828125-.121093-1.09375-.265625-2.199218-.425781-3.308594-.011719-.085937-.019531-.167968-.03125-.25-4.699219-32.578124-25.246094-74.539062-61.269531-125.144531-.152344-.214843-.304688-.429687-.457031-.640625-1.101563-1.542968-2.214844-3.09375-3.34375-4.65625-.136719-.191406-.273438-.375-.410157-.570312-.730469-1.007813-1.464843-2.007813-2.195312-3.003906-.214844-.292969-.417969-.582032-.632813-.875 20.875-33.679688 47.605469-66.003907 62.238282-82.875 32.910156 37.75 91.378906 113.695312 91.378906 156.511718 0 54.308594-38.296875 98.828125-86.363282 101.765625zm0 0"/></svg>