<svg viewBox="-48 0 512 512.00126" xmlns="http://www.w3.org/2000/svg"><path d="m389.585938 142.191406c-.253907-.292968-.507813-.589844-.789063-.867187-.277344-.28125-.574219-.535157-.867187-.789063-17.316407-16.898437-40.972657-27.332031-67.019532-27.332031-52.941406 0-96.011718 43.070313-96.011718 96.011719 0 26.054687 10.4375 49.714844 27.34375 67.03125.25.289062.503906.578125.777343.855468.277344.277344.566407.527344.855469.773438 17.316406 16.910156 40.976562 27.347656 67.035156 27.347656 52.9375 0 96.007813-43.070312 96.007813-96.007812 0-26.050782-10.433594-49.707032-27.332031-67.023438zm-68.675782.550782c12.984375 0 25.105469 3.757812 35.355469 10.226562l-91.601563 91.597656c-6.464843-10.246094-10.222656-22.367187-10.222656-35.355468 0-36.648438 29.816406-66.46875 66.46875-66.46875zm0 132.9375c-12.988281 0-25.109375-3.757813-35.359375-10.222657l91.601563-91.601562c6.464844 10.25 10.226562 22.367187 10.226562 35.355469 0 36.652343-29.820312 66.46875-66.46875 66.46875zm0 0"/><path d="m169.585938 169.570312c.003906-.003906.007812-.003906.007812-.007812l.007812-.007812 43.511719-43.511719c28.796875-28.796875 28.796875-75.652344 0-104.445313-28.792969-28.796875-75.648437-28.796875-104.445312 0l-87.035157 87.039063c-13.949218 13.949219-21.632812 32.496093-21.632812 52.222656s7.683594 38.273437 21.632812 52.222656c14.398438 14.394531 33.308594 21.59375 52.222657 21.59375 18.910156 0 37.824219-7.199219 52.222656-21.59375zm-40.027344-127.085937c8.640625-8.636719 19.984375-12.957031 31.332031-12.957031s22.695313 4.320312 31.335937 12.957031c17.277344 17.28125 17.277344 45.390625 0 62.671875l-33.078124 33.074219-62.664063-62.667969zm-87.039063 149.707031c-8.367187-8.367187-12.976562-19.496094-12.976562-31.332031s4.609375-22.964844 12.976562-31.332031l33.074219-33.078125 62.667969 62.667969-33.074219 33.074218c-17.277344 17.277344-45.390625 17.277344-62.667969 0zm0 0"/><path d="m276.070312 350.773438c-22.65625-22.65625-49.371093-38.859376-75.222656-45.621094-28.640625-7.488282-53.25-2.769532-69.304687 13.285156-16.058594 16.058594-20.773438 40.667969-13.285157 69.304688 6.761719 25.851562 22.960938 52.566406 45.621094 75.222656 31.785156 31.789062 69.285156 49.039062 100.394532 49.035156 17.421874 0 32.839843-5.40625 44.132812-16.699219 16.054688-16.054687 20.773438-40.667969 13.28125-69.300781-6.757812-25.855469-22.960938-52.570312-45.617188-75.226562zm11.449219 123.640624c-8.214843 8.210938-23.136719 10.25-40.941406 5.589844-20.855469-5.453125-42.804687-18.921875-61.808594-37.929687-19.007812-19.003907-32.476562-40.953125-37.929687-61.808594-4.660156-17.804687-2.621094-32.726563 5.589844-40.9375 5.316406-5.316406 13.445312-8.046875 23.347656-8.046875 5.394531 0 11.316406.808594 17.59375 2.453125 20.855468 5.453125 42.804687 18.921875 61.808594 37.929687 19.007812 19.003907 32.476562 40.953126 37.929687 61.808594 4.660156 17.808594 2.621094 32.726563-5.589844 40.941406zm0 0"/><path d="m222.84375 379.304688-30.433594 30.433593c-5.765625 5.769531-5.765625 15.121094 0 20.890625 2.886719 2.882813 6.664063 4.328125 10.445313 4.328125 3.777343 0 7.558593-1.445312 10.445312-4.328125l30.433594-30.433594c5.765625-5.769531 5.765625-15.121093 0-20.890624-5.769531-5.765626-15.121094-5.765626-20.890625 0zm0 0"/></svg>