<svg viewBox="0 1 511.99983 511" xmlns="http://www.w3.org/2000/svg"><path d="m496.84375 68.058594-52.402344-52.402344c-20.207031-20.207031-53.085937-20.207031-73.292968 0l-199.691407 199.691406c-17.070312 17.070313-28.359375 39.632813-31.785156 63.53125-2.304687 16.085938-9.21875 31.015625-19.992187 43.179688l-115.96875 130.941406c-5.175782 5.847656-4.90625 14.714844.613281 20.238281l34.9375 34.933594c2.875 2.875 6.65625 4.328125 10.445312 4.328125 3.492188 0 6.988281-1.230469 9.789063-3.714844l130.941406-115.964844c12.164062-10.773437 27.097656-17.6875 43.183594-19.992187 23.898437-3.425781 46.460937-14.714844 63.53125-31.785156l199.691406-199.695313c20.207031-20.207031 20.207031-53.082031 0-73.289062zm-446.523438 409.398437-15.277343-15.277343 17.296875-19.53125 17.511718 17.507812zm425.636719-356.996093-199.691406 199.691406c-12.585937 12.585937-29.21875 20.90625-46.835937 23.433594-21.820313 3.128906-42.074219 12.507812-58.574219 27.121093l-78.847657 69.832031-20.046874-20.046874 69.832031-78.847657c14.613281-16.5 23.992187-36.753906 27.121093-58.574219 2.523438-17.617187 10.847657-34.25 23.433594-46.835937l199.691406-199.691406c8.6875-8.6875 22.824219-8.691407 31.515626 0l52.402343 52.402343c8.6875 8.6875 8.6875 22.828126 0 31.515626zm0 0"/><path d="m326.535156 151.03125c-5.769531-5.769531-15.121094-5.769531-20.890625 0l-87.335937 87.335938c-2.773438 2.769531-4.328125 6.527343-4.328125 10.445312s1.554687 7.675781 4.328125 10.441406l34.933594 34.9375c2.882812 2.882813 6.664062 4.324219 10.445312 4.324219 3.777344 0 7.558594-1.441406 10.441406-4.324219l87.339844-87.339844c5.765625-5.765624 5.765625-15.121093 0-20.886718zm-62.847656 111.828125-14.046875-14.046875 66.449219-66.449219 14.046875 14.046875zm0 0"/><path d="m378.9375 98.628906c-5.765625-5.769531-15.121094-5.769531-20.886719 0-5.769531 5.765625-5.769531 15.117188 0 20.886719l34.933594 34.933594c2.882813 2.882812 6.664063 4.328125 10.445313 4.328125 3.777343 0 7.558593-1.445313 10.441406-4.328125 5.769531-5.765625 5.769531-15.117188 0-20.886719zm0 0"/></svg>