<svg viewBox="-64 0 512 512" xmlns="http://www.w3.org/2000/svg"><path d="m349.308594 339.859375-142.539063-31.703125v-130.925781c0-8.15625-6.613281-14.769531-14.769531-14.769531h-4.921875v-147.691407c0-8.15625-6.613281-14.769531-14.769531-14.769531h-137.847656c-8.15625 0-14.769532 6.613281-14.769532 14.769531v147.691407h-4.921875c-8.15625 0-14.769531 6.613281-14.769531 14.769531v290.460937c0 24.433594 19.875 44.308594 44.308594 44.308594h295.382812c24.433594 0 44.308594-19.875 44.308594-44.308594v-84.585937c0-20.929688-14.265625-38.710938-34.691406-43.246094zm-63.171875 16.207031-82.445313 126.394532h-95.382812v-39.382813c0-24.433594-19.878906-44.308594-44.308594-44.308594h-34.460938v-206.769531h147.691407v128c0 6.921875 4.808593 12.914062 11.5625 14.417969zm-236.90625-326.527344h108.308593v132.921876h-108.308593zm-4.921875 452.921876c-8.144532 0-14.769532-6.625-14.769532-14.769532v-39.382812h34.460938c8.144531 0 14.769531 6.625 14.769531 14.769531v39.382813zm310.152344-14.769532c0 8.144532-6.625 14.769532-14.769532 14.769532h-100.730468l77.972656-119.542969 25.964844 5.773437c6.808593 1.511719 11.5625 7.441406 11.5625 14.414063zm0 0"/><path d="m132.921875 221.539062h-59.074219c-8.15625 0-14.769531 6.613282-14.769531 14.769532s6.613281 14.769531 14.769531 14.769531h59.074219c8.15625 0 14.769531-6.613281 14.769531-14.769531s-6.613281-14.769532-14.769531-14.769532zm0 0"/><path d="m132.921875 280.617188h-59.074219c-8.15625 0-14.769531 6.609374-14.769531 14.765624 0 8.160157 6.613281 14.769532 14.769531 14.769532h59.074219c8.15625 0 14.769531-6.609375 14.769531-14.769532 0-8.15625-6.613281-14.765624-14.769531-14.765624zm0 0"/><path d="m132.921875 339.691406h-59.074219c-8.15625 0-14.769531 6.613282-14.769531 14.769532s6.613281 14.769531 14.769531 14.769531h59.074219c8.15625 0 14.769531-6.613281 14.769531-14.769531s-6.613281-14.769532-14.769531-14.769532zm0 0"/></svg>