<svg viewBox="0 -71 512 512" xmlns="http://www.w3.org/2000/svg"><path d="m492.230469 242.410156c-12.566407-10.949218-29.234375-15.921875-45.746094-13.644531l-81.09375 11.195313c2.503906-5.582032 3.839844-11.695313 3.839844-17.976563 0-21.3125-15.085938-39.359375-35.976563-43.183594l-177.082031-45.980469c-24.542969-6.371093-50.6875-7.230468-75.601563-2.480468l-68.566406 13.070312c-6.964844 1.324219-12.003906 7.417969-12.003906 14.507813v157.539062c0 8.15625 6.613281 14.769531 14.769531 14.769531h102.160157l235.105468 39.183594c.804688.132813 1.617188.199219 2.425782.199219 2.214843 0 4.414062-.5 6.425781-1.472656l142.769531-68.976563c5.101562-2.464844 8.34375-7.632812 8.34375-13.296875 0-16.667969-7.207031-32.503906-19.769531-43.453125zm-139.96875 97.089844-231.679688-38.613281c-.800781-.132813-1.613281-.199219-2.429687-.199219h-88.613282v-130.550781l56.5625-10.78125c20.644532-3.933594 42.304688-3.222657 62.648438 2.058593l177.652344 46.125c.425781.109376.851562.203126 1.285156.273438 6.957031 1.160156 12.003906 7.117188 12.003906 14.171875 0 4.292969-1.804687 8.1875-5.078125 10.964844-3.25 2.75-7.339843 3.886719-11.535156 3.226562l-143.417969-23.902343c-8.050781-1.34375-15.65625 4.09375-16.996094 12.140624-1.34375 8.046876 4.09375 15.65625 12.140626 16.996094l177.230468 29.539063c1.46875.242187 2.96875.261719 4.445313.0625l94.042969-12.984375c8.042968-1.113282 16.175781 1.3125 22.300781 6.652344 3.894531 3.394531 6.734375 7.753906 8.285156 12.570312zm0 0"/><path d="m366.761719 157.207031c13.199219 0 26.394531-5.023437 36.445312-15.074219l54.171875-54.171874c20.09375-20.09375 20.09375-52.792969 0-72.890626-20.097656-20.09375-52.796875-20.09375-72.890625 0l-54.171875 54.171876c-9.734375 9.734374-15.097656 22.679687-15.097656 36.445312 0 13.769531 5.359375 26.710938 15.097656 36.445312 10.046875 10.050782 23.246094 15.074219 36.445313 15.074219zm54.171875-127.683593c5.632812 0 11.265625 2.144531 15.558594 6.433593 8.578124 8.582031 8.578124 22.539063 0 31.121094l-16.644532 16.640625-31.117187-31.117188 16.640625-16.644531c4.289062-4.289062 9.925781-6.433593 15.5625-6.433593zm-69.730469 60.605468 16.640625-16.640625 31.117188 31.117188-16.640626 16.640625c-8.578124 8.582031-22.539062 8.582031-31.117187 0-4.15625-4.152344-6.445313-9.679688-6.445313-15.558594 0-5.875 2.289063-11.402344 6.445313-15.558594zm0 0"/></svg>